<svg xmlns="http://www.w3.org/2000/svg" version="1.1" xmlns:xlink="http://www.w3.org/1999/xlink" xmlns:svgjs="http://svgjs.dev/svgjs" width="2000" height="1400" preserveAspectRatio="none" viewBox="0 0 2000 1400"><g mask="url(&quot;#SvgjsMask1018&quot;)" fill="none"><rect width="2000" height="1400" x="0" y="0" fill="rgba(0, 148, 135, 1)"></rect><path d="M0,958.925C178.998,937.464,229.494,690.258,376.897,586.463C514.733,489.404,733.431,518.1,826.059,377.248C919.267,235.514,893.785,40.513,842.201,-121.09C794.582,-270.271,651.069,-357.075,552.756,-478.965C449.872,-606.522,410.373,-816.795,250.838,-854.275C89.852,-892.096,-36.751,-710.863,-192.012,-653.934C-333.284,-602.134,-514.59,-644.79,-618.162,-535.64C-722.032,-426.176,-676.465,-248.702,-714.983,-102.799C-760.055,67.929,-921.967,227.753,-863.703,394.44C-806.05,559.378,-586.086,588.797,-439.828,684.386C-292.168,780.891,-175.145,979.924,0,958.925" fill="#00766c"></path><path d="M2000 1959.393C2109.689 1946.222 2220.141 1945.964 2318.341 1895.349 2423.181 1841.312 2514.924 1764.033 2575.443 1662.796 2640.428 1554.089 2670.84 1429.989 2672.239 1303.347 2673.813 1160.8890000000001 2685.127 994.302 2583.935 894.017 2482.652 793.641 2309.513 851.937 2173.508 809.085 2033.519 764.978 1922.527 622.581 1776.755 639.696 1628.0520000000001 657.155 1520.387 786.337 1420.1309999999999 897.54 1318.238 1010.559 1213.02 1133.175 1195.568 1284.34 1178.2820000000002 1434.069 1246.844 1579.642 1326.62 1707.522 1399.6219999999998 1824.5439999999999 1499.233 1929.875 1628.417 1978.1950000000002 1746.978 2022.5410000000002 1874.32 1974.4850000000001 2000 1959.393" fill="#00b2a2"></path></g><defs><mask id="SvgjsMask1018"><rect width="2000" height="1400" fill="#ffffff"></rect></mask></defs></svg>