<svg xmlns="http://www.w3.org/2000/svg" version="1.1" xmlns:xlink="http://www.w3.org/1999/xlink" xmlns:svgjs="http://svgjs.dev/svgjs" width="1920" height="800" preserveAspectRatio="none" viewBox="0 0 1920 800">
    <g mask="url(&quot;#SvgjsMask1440&quot;)" fill="none">
        <rect width="1920" height="800" x="0" y="0" fill="rgba(0, 148, 135, 1)"></rect>
        <path d="M0,681.709C120.59,646.667,186.665,521.287,299.21,465.579C433.219,399.247,656.202,464.042,716.332,327.138C776.826,189.406,582.384,66.323,537.652,-77.303C502.63,-189.751,532.714,-312.104,483.864,-419.271C422.936,-552.934,361.751,-712.192,224.45,-764.405C86.96,-816.689,-67.522,-744.254,-199.402,-679.101C-316.763,-621.121,-388.665,-509.657,-480.341,-416.218C-579.103,-315.558,-717.179,-243.857,-758.672,-109.081C-802.257,32.489,-764.036,186.215,-708.028,323.345C-650.435,464.356,-572.532,610.623,-436.629,679.409C-304.086,746.495,-142.653,723.163,0,681.709" fill="#007b70"></path>
        <path d="M1920 1750.463C2097.09 1762.682 2173.952 1518.056 2303.42 1396.614 2405.82 1300.562 2538.901 1236.901 2601.486 1111.224 2665.152 983.377 2652.438 837.43 2653.008 694.609 2653.674 527.6990000000001 2726.4719999999998 320.935 2605.0950000000003 206.36199999999997 2480.717 88.95500000000004 2272.678 199.54100000000005 2103.306 175.71799999999996 1966.516 156.47799999999995 1845.829 63.87900000000002 1708.67 80.27499999999998 1559.151 98.14800000000002 1421.724 170.69399999999996 1309.105 270.65700000000004 1185.876 380.038 1081 513.851 1040.315 673.52 997.205 842.703 968.083 1048.203 1076.01 1185.437 1185.08 1324.125 1422.524 1247.7930000000001 1569.1399999999999 1345.9479999999999 1720.529 1447.298 1738.25 1737.922 1920 1750.463" fill="#00ad9e"></path>
    </g>
    <defs>
        <mask id="SvgjsMask1440">
            <rect width="1920" height="800" fill="#ffffff"></rect>
        </mask>
    </defs>
</svg>