<svg xmlns="http://www.w3.org/2000/svg" version="1.1" xmlns:xlink="http://www.w3.org/1999/xlink" xmlns:svgjs="http://svgjs.dev/svgjs" width="2000" height="1400" preserveAspectRatio="none" viewBox="0 0 2000 1400"><g mask="url(&quot;#SvgjsMask1136&quot;)" fill="none"><rect width="2000" height="1400" x="0" y="0" fill="rgba(0, 148, 135, 1)"></rect><path d="M0,564.573C120.4,582.749,261.122,630.777,357.808,556.761C455.371,482.073,425.461,328.288,461.925,210.954C492.779,111.673,571.894,22.798,555.663,-79.892C539.481,-182.274,446.563,-249.831,376.954,-326.633C308.957,-401.657,244.051,-477.732,153.687,-523.409C49.707,-575.969,-70.68,-651.891,-178.324,-607.314C-287.395,-562.146,-281.178,-399.845,-359.019,-311.091C-437.601,-221.492,-604.771,-206.949,-631.35,-90.774C-657.523,23.63,-541.749,119.346,-480.38,219.382C-426.531,307.161,-378.149,398.191,-294.521,458.284C-208.011,520.448,-105.335,548.671,0,564.573" fill="#00766c"></path><path d="M2000 2146.922C2139.754 2148.043 2255.962 2055.517 2380.441 1991.978 2519.576 1920.958 2709.082 1895.547 2772.312 1752.703 2835.591 1609.747 2707.589 1456.205 2686.148 1301.347 2664.551 1145.367 2732.179 972.0360000000001 2645.976 840.259 2557.6549999999997 705.244 2387.3469999999998 653.478 2232.565 607.957 2077.73 562.421 1917.527 548.856 1759.055 579.418 1588.876 612.238 1417.472 666.525 1294.6779999999999 788.835 1167.4479999999999 915.562 1093.4859999999999 1088.249 1069.5320000000002 1266.219 1045.705 1443.245 1051.8899999999999 1641.683 1160.838 1783.232 1265.647 1919.405 1465.795 1917.575 1623.461 1985.9070000000002 1751.3 2041.312 1860.675 2145.805 2000 2146.922" fill="#00b2a2"></path></g><defs><mask id="SvgjsMask1136"><rect width="2000" height="1400" fill="#ffffff"></rect></mask></defs></svg>