<?xml version="1.0" encoding="UTF-8" standalone="no"?>
<!-- Created with Inkscape (http://www.inkscape.org/) -->

<svg
   version="1.1"
   id="svg1"
   viewBox="0 0 512 512"
   xmlns:xlink="http://www.w3.org/1999/xlink"
   xmlns="http://www.w3.org/2000/svg"
   xmlns:svg="http://www.w3.org/2000/svg">

      <path
         style="fill:#daeafc"
         d="m 342.67693,498.42988 c -18.44442,-4.11052 -34.70569,-12.65944 -47.70663,-25.08047 l -7.66595,-7.324 -113.05954,-0.2627 L 61.185258,465.5 57.342629,462.44203 C 55.229183,460.76015 52.4875,457.4023 51.25,454.98014 L 49,450.57622 V 239 27.42378 l 2.25,-4.403924 c 1.2375,-2.422158 3.979269,-5.780009 6.092821,-7.46189 L 61.185642,12.5 H 218.5 375.81436 l 3.84282,3.057966 c 2.11355,1.681881 4.85532,5.039732 6.09282,7.46189 L 388,27.42378 V 165.5536 303.68342 l 4.25,1.24497 c 30.11843,8.82268 56.36383,34.88948 66.0447,65.59527 16.97632,53.84549 -14.40531,111.53835 -68.82458,126.52899 -10.58544,2.91593 -36.47034,3.67778 -46.79319,1.37723 z"
         id="path786548" />
      <path
         style="fill:#b2d6fd"
         d="m 342.67693,498.42988 c -18.44442,-4.11052 -34.70569,-12.65944 -47.70663,-25.08047 l -7.66595,-7.324 -113.05954,-0.2627 L 61.185258,465.5 57.342629,462.44203 C 55.229183,460.76015 52.4875,457.4023 51.25,454.98014 L 49,450.57622 V 239 27.42378 l 2.25,-4.403924 c 1.2375,-2.422158 3.979269,-5.780009 6.092821,-7.46189 L 61.185642,12.5 H 218.5 375.81436 l 3.84282,3.057966 c 2.11355,1.681881 4.85532,5.039732 6.09282,7.46189 L 388,27.42378 V 165.5536 303.68342 l 4.25,1.24497 c 30.11843,8.82268 56.36383,34.88948 66.0447,65.59527 16.97632,53.84549 -14.40531,111.53835 -68.82458,126.52899 -10.58544,2.91593 -36.47034,3.67778 -46.79319,1.37723 z m -66.71585,-48.11972 c -4.7502,-8.1288 -9.48338,-20.90319 -11.02485,-29.75498 L 263.79469,414 H 182.8496 101.9045 l -2.452249,-2.64602 C 96.795097,408.48686 96.18706,403.38751 98.080491,399.8496 100.6789,394.99442 100.57977,395 184.30012,395 h 78.36437 l 1.67917,-9.75 c 0.92355,-5.3625 1.95003,-10.9798 2.28107,-12.48289 l 0.60188,-2.7329 -82.70012,-0.2671 -82.70013,-0.26711 -2.413179,-2.80576 c -3.611321,-4.19882 -3.330533,-9.74455 0.663549,-13.10535 L 103.15345,351 h 86.28403 86.28403 l 4.04228,-6.25 c 2.22325,-3.4375 6.82578,-9.2875 10.22783,-13 l 6.18556,-6.75 h -96.51186 -96.51187 l -3.07672,-2.58889 c -3.99408,-3.3608 -4.27487,-8.90652 -0.663552,-13.10535 L 101.82636,306.5 217.16318,305.97477 c 110.56991,-0.50351 115.5848,-0.60529 121.33682,-2.46247 4.96004,-1.60148 8.98945,-1.94376 23.2475,-1.97478 l 17.24749,-0.0375 0.003,-135.29966 c 0.003,-147.592922 0.36277,-138.411989 -5.61238,-143.112044 L 370.73028,21 H 218.5 66.269717 l -2.654838,2.088296 C 57.58171,27.833987 58,11.749285 58,239 58,466.25072 57.58171,450.16601 63.614879,454.9117 66.269494,456.99982 66.278692,457 173.07006,457 H 279.8704 Z M 102.31382,279.04977 C 96.365836,275.42303 96.5,276.6357 96.5,226.5 c 0,-50.1357 -0.134164,-48.92303 5.81382,-52.54977 3.0294,-1.84716 5.38971,-1.94294 47.9683,-1.94649 49.18527,-0.004 50.17126,0.10474 53.15146,5.86782 2.3562,4.5564 2.3562,92.70048 0,97.25688 -2.9802,5.76308 -3.96619,5.87193 -53.15146,5.86782 -42.57859,-0.004 -44.9389,-0.0993 -47.9683,-1.94649 z m 121.68733,0.19868 c -6.40149,-3.19896 -7.52004,-9.82047 -2.50594,-14.83457 L 223.90909,262 h 55.35836 55.35837 l 2.68709,2.80472 c 4.98446,5.20265 2.77679,13.24274 -4.16572,15.17109 -2.2425,0.62287 -23.28945,1.01459 -54.64719,1.01706 -46.55833,0.004 -51.30472,-0.14825 -54.49885,-1.74442 z M 221.81578,233.1267 C 219.27626,230.85765 218.6,229.46409 218.6,226.5 c 0,-2.96409 0.67626,-4.35765 3.21578,-6.6267 L 225.03155,217 h 54.56115 54.56115 l 2.92307,2.92308 c 4.03432,4.03431 4.03432,9.11953 0,13.15384 L 334.15385,236 H 279.5927 225.03155 Z m -0.32057,-44.54058 c -5.0141,-5.0141 -3.89555,-11.63561 2.50594,-14.83457 3.19413,-1.59617 7.94052,-1.74809 54.49885,-1.74442 31.35774,0.002 52.40469,0.39419 54.64719,1.01706 6.85051,1.90279 8.96945,9.30687 4.26392,14.89908 L 334.82221,191 H 279.36565 223.90909 Z M 102.76257,116.43461 C 97.487766,113.57253 97,111.1234 97,87.5 97,64.180186 97.42457,61.917507 102.4137,58.6485 106.10311,56.231107 329.36719,56.10428 334.03273,58.516927 339.51604,61.352455 340,63.703053 340,87.5 c 0,23.79695 -0.48396,26.14754 -5.96727,28.98307 -4.3892,2.26975 -227.08371,2.22308 -231.27016,-0.0485 z"
         id="path786547" />
      <path
         style="fill:#fde98d"
         d="m 342.67693,498.42988 c -18.44442,-4.11052 -34.70569,-12.65944 -47.70663,-25.08047 l -7.66595,-7.324 -113.05954,-0.2627 L 61.185258,465.5 57.342629,462.44203 C 55.229183,460.76015 52.4875,457.4023 51.25,454.98014 L 49,450.57622 V 239 27.42378 l 2.25,-4.403924 c 1.2375,-2.422158 3.979269,-5.780009 6.092821,-7.46189 L 61.185642,12.5 H 218.5 375.81436 l 3.84282,3.057966 c 2.11355,1.681881 4.85532,5.039732 6.09282,7.46189 L 388,27.42378 V 165.5536 303.68342 l 4.25,1.24497 c 30.11843,8.82268 56.36383,34.88948 66.0447,65.59527 16.97632,53.84549 -14.40531,111.53835 -68.82458,126.52899 -10.58544,2.91593 -36.47034,3.67778 -46.79319,1.37723 z m -66.71585,-48.11972 c -4.7502,-8.1288 -9.48338,-20.90319 -11.02485,-29.75498 L 263.79469,414 h -80.34158 -80.34158 l -2.58953,-2.25 c -4.178907,-3.63099 -4.481015,-8.94483 -0.722237,-12.70361 L 102.84615,396 h 79.97874 79.97874 l 0.71781,-6.18477 c 0.3948,-3.40162 1.5021,-9.47662 2.46067,-13.5 L 267.72495,369 h -82.77358 -82.77358 l -2.588896,-3.07673 C 96.807179,362.61739 96.449669,360.57768 97.957039,356.613 100.16115,350.81575 97.129638,351 190.3111,351 h 85.41041 l 4.04228,-6.25 c 2.22325,-3.4375 6.82578,-9.2875 10.22783,-13 l 6.18556,-6.75 h -95.63825 c -104.385092,0 -100.36418,0.22001 -102.581891,-5.613 -1.50737,-3.96468 -1.14986,-6.00439 1.631855,-9.31027 L 102.17779,307 h 111.89599 111.896 l 8.76511,-2.66826 c 8.0204,-2.44156 10.27293,-2.67521 26.51183,-2.75 l 17.74673,-0.0817 0.003,-135.29966 c 0.004,-147.593209 0.36359,-138.411963 -5.6116,-143.112044 L 370.73028,21 H 218.5 66.269717 l -2.654838,2.088296 C 57.58171,27.833987 58,11.749285 58,239 58,466.25072 57.58171,450.16601 63.614879,454.9117 66.269494,456.99982 66.278692,457 173.07006,457 H 279.8704 Z M 103.44866,279.46433 C 96.896598,276.1968 97,277.04606 97,226.5 c 0,-41.27212 0.165011,-45.97076 1.706063,-48.57955 3.538747,-5.99062 3.693747,-6.00703 53.834607,-5.69988 l 45.61439,0.27943 3.42247,3.73531 L 205,179.97063 V 226.5 273.02937 l -3.42248,3.73532 -3.42249,3.73531 -45.82751,0.24302 c -39.36039,0.20873 -46.25812,0.0283 -48.87886,-1.27869 z M 223.5,278.79218 c -5.41713,-3.10672 -6.11271,-9.33332 -1.55209,-13.89393 l 2.94791,-2.94791 55.02486,0.27483 55.02486,0.27483 2.2545,2.25505 c 3.39148,3.39231 3.13196,9.70246 -0.52853,12.85108 L 333.88847,280 279.69424,279.9696 c -38.8804,-0.0218 -54.75939,-0.35452 -56.19424,-1.17741 z m -2.04545,-46.24673 C 219.75988,230.85079 219,228.97924 219,226.5 c 0,-2.47924 0.75988,-4.35079 2.45455,-6.04545 L 223.90909,218 h 55.45656 55.45656 l 2.5889,3.07673 c 3.27715,3.89467 3.27715,6.95187 0,10.84654 L 334.82221,235 h -55.45656 -55.45656 z m 0.49336,-44.4437 c -4.63161,-4.6316 -3.84237,-10.96716 1.73635,-13.93841 C 225.26731,173.32021 240.7346,173 279.87849,173 h 54.00998 l 2.78304,2.39387 c 3.66049,3.14862 3.92001,9.45877 0.52853,12.85108 l -2.2545,2.25505 -55.02486,0.27483 -55.02486,0.27483 z M 104,116.24845 c -6.318341,-3.15637 -6.996685,-6.00125 -6.998446,-29.350567 -0.0015,-19.790899 0.08822,-20.735336 2.278461,-23.985431 4.195525,-6.225736 -2.750761,-5.882968 119.219985,-5.882968 121.97075,0 115.02446,-0.342768 119.21998,5.882968 2.19024,3.250095 2.27996,4.194532 2.27847,23.985431 -0.002,23.349317 -0.68011,26.194197 -6.99845,29.350567 -5.40968,2.70244 -223.59032,2.70244 -229,0 z"
         id="path786546" />
      <path
         style="fill:#92c9fe"
         d="m 342.67693,498.42988 c -18.44442,-4.11052 -34.70569,-12.65944 -47.70663,-25.08047 l -7.66595,-7.324 -113.05954,-0.2627 L 61.185258,465.5 57.342629,462.44203 C 55.229183,460.76015 52.4875,457.4023 51.25,454.98014 L 49,450.57622 V 239 27.42378 l 2.25,-4.403924 c 1.2375,-2.422158 3.979269,-5.780009 6.092821,-7.46189 L 61.185642,12.5 H 218.5 375.81436 l 3.84282,3.057966 c 2.11355,1.681881 4.85532,5.039732 6.09282,7.46189 L 388,27.42378 V 165.5536 303.68342 l 4.25,1.24497 c 30.11843,8.82268 56.36383,34.88948 66.0447,65.59527 16.97632,53.84549 -14.40531,111.53835 -68.82458,126.52899 -10.58544,2.91593 -36.47034,3.67778 -46.79319,1.37723 z m -66.71585,-48.11972 c -4.7502,-8.1288 -9.48338,-20.90319 -11.02485,-29.75498 L 263.79469,414 h -80.34158 -80.34158 l -2.58953,-2.25 c -4.178907,-3.63099 -4.481015,-8.94483 -0.722237,-12.70361 L 102.84615,396 h 79.97874 79.97874 l 0.71781,-6.18477 c 0.3948,-3.40162 1.5021,-9.47662 2.46067,-13.5 L 267.72495,369 h -82.77358 -82.77358 l -2.588896,-3.07673 C 96.807179,362.61739 96.449669,360.57768 97.957039,356.613 100.16115,350.81575 97.129638,351 190.3111,351 h 85.41041 l 4.04228,-6.25 c 2.22325,-3.4375 6.82578,-9.2875 10.22783,-13 l 6.18556,-6.75 h -95.63825 c -104.385092,0 -100.36418,0.22001 -102.581891,-5.613 -1.50737,-3.96468 -1.14986,-6.00439 1.631855,-9.31027 L 102.17779,307 h 111.89599 111.896 l 8.76511,-2.66826 c 8.0204,-2.44156 10.27293,-2.67521 26.51183,-2.75 l 17.74673,-0.0817 0.003,-135.29966 c 0.004,-147.593209 0.36359,-138.411963 -5.6116,-143.112044 L 370.73028,21 H 218.5 66.269717 l -2.654838,2.088296 C 57.58171,27.833987 58,11.749285 58,239 58,466.25072 57.58171,450.16601 63.614879,454.9117 66.269494,456.99982 66.278692,457 173.07006,457 H 279.8704 Z M 103.44866,279.46433 C 96.896598,276.1968 97,277.04606 97,226.5 c 0,-41.27212 0.165011,-45.97076 1.706063,-48.57955 3.538747,-5.99062 3.693747,-6.00703 53.834607,-5.69988 l 45.61439,0.27943 3.42247,3.73531 L 205,179.97063 V 226.5 273.02937 l -3.42248,3.73532 -3.42249,3.73531 -45.82751,0.24302 c -39.36039,0.20873 -46.25812,0.0283 -48.87886,-1.27869 z M 223.5,278.79218 c -5.41713,-3.10672 -6.11271,-9.33332 -1.55209,-13.89393 l 2.94791,-2.94791 55.02486,0.27483 55.02486,0.27483 2.2545,2.25505 c 3.39148,3.39231 3.13196,9.70246 -0.52853,12.85108 L 333.88847,280 279.69424,279.9696 c -38.8804,-0.0218 -54.75939,-0.35452 -56.19424,-1.17741 z m -2.04545,-46.24673 C 219.75988,230.85079 219,228.97924 219,226.5 c 0,-2.47924 0.75988,-4.35079 2.45455,-6.04545 L 223.90909,218 h 55.45656 55.45656 l 2.5889,3.07673 c 3.27715,3.89467 3.27715,6.95187 0,10.84654 L 334.82221,235 h -55.45656 -55.45656 z m 0.49336,-44.4437 c -4.63161,-4.6316 -3.84237,-10.96716 1.73635,-13.93841 C 225.26731,173.32021 240.7346,173 279.87849,173 h 54.00998 l 2.78304,2.39387 c 3.66049,3.14862 3.92001,9.45877 0.52853,12.85108 l -2.2545,2.25505 -55.02486,0.27483 -55.02486,0.27483 z M 104,116.24845 c -6.318341,-3.15637 -6.996685,-6.00125 -6.998446,-29.350567 -0.0015,-19.790899 0.08822,-20.735336 2.278461,-23.985431 4.195525,-6.225736 -2.750761,-5.882968 119.219985,-5.882968 121.97075,0 115.02446,-0.342768 119.21998,5.882968 2.19024,3.250095 2.27996,4.194532 2.27847,23.985431 -0.002,23.349317 -0.68011,26.194197 -6.99845,29.350567 -5.40968,2.70244 -223.59032,2.70244 -229,0 z m 251,325.20957 c 1.375,-0.71561 4.57104,-3.47391 7.10232,-6.12956 9.39804,-9.85982 54.52271,-61.90893 55.19766,-63.66781 3.40285,-8.86769 -7.38178,-17.49422 -15.10654,-12.08359 -1.23836,0.86739 -13.78921,14.70489 -27.89076,30.75 -14.10156,16.04512 -26.12598,29.26944 -26.72094,29.38738 -0.59496,0.11794 -5.76428,-5.89678 -11.48738,-13.36605 -11.83608,-15.44739 -14.69975,-17.51446 -20.99751,-15.1565 -4.89933,1.83437 -7.73332,7.38232 -6.15643,12.05216 1.29145,3.82453 24.84473,34.38671 28.62953,37.14899 4.96125,3.62091 11.72493,4.03417 17.43005,1.06498 z"
         id="path786545" />
      <path
         style="fill:#a6aef3"
         d="m 342.67693,498.42988 c -18.44442,-4.11052 -34.70569,-12.65944 -47.70663,-25.08047 l -7.66595,-7.324 -113.05954,-0.2627 L 61.185258,465.5 57.342629,462.44203 C 55.229183,460.76015 52.4875,457.4023 51.25,454.98014 L 49,450.57622 V 239 27.42378 l 2.25,-4.403924 c 1.2375,-2.422158 3.979269,-5.780009 6.092821,-7.46189 L 61.185642,12.5 H 218.5 375.81436 l 3.84282,3.057966 c 2.11355,1.681881 4.85532,5.039732 6.09282,7.46189 L 388,27.42378 V 165.5536 303.68342 l 4.25,1.24497 c 30.11843,8.82268 56.36383,34.88948 66.0447,65.59527 16.97632,53.84549 -14.40531,111.53835 -68.82458,126.52899 -10.58544,2.91593 -36.47034,3.67778 -46.79319,1.37723 z m -66.71585,-48.11972 c -12.45276,-21.30985 -16.14347,-50.12118 -9.64865,-75.32164 8.75349,-33.96431 34.14697,-60.23489 68.24921,-70.60658 8.2199,-2.49996 10.36483,-2.72503 26.68508,-2.8002 l 17.74673,-0.0817 0.003,-135.29966 c 0.004,-147.593209 0.36359,-138.411963 -5.6116,-143.112044 L 370.73028,21 H 218.5 66.269717 l -2.654838,2.088296 C 57.58171,27.833987 58,11.749285 58,239 58,466.25072 57.58171,450.16601 63.614879,454.9117 66.269494,456.99982 66.278692,457 173.07006,457 H 279.8704 Z M 103.44866,279.46433 C 96.896598,276.1968 97,277.04606 97,226.5 c 0,-41.27212 0.165011,-45.97076 1.706063,-48.57955 3.538747,-5.99062 3.693747,-6.00703 53.834607,-5.69988 l 45.61439,0.27943 3.42247,3.73531 L 205,179.97063 V 226.5 273.02937 l -3.42248,3.73532 -3.42249,3.73531 -45.82751,0.24302 c -39.36039,0.20873 -46.25812,0.0283 -48.87886,-1.27869 z M 355,441.45802 c 1.375,-0.71561 4.57104,-3.47391 7.10232,-6.12956 9.39804,-9.85982 54.52271,-61.90893 55.19766,-63.66781 3.40285,-8.86769 -7.38178,-17.49422 -15.10654,-12.08359 -1.23836,0.86739 -13.78921,14.70489 -27.89076,30.75 -14.10156,16.04512 -26.12598,29.26944 -26.72094,29.38738 -0.59496,0.11794 -5.76428,-5.89678 -11.48738,-13.36605 -11.83608,-15.44739 -14.69975,-17.51446 -20.99751,-15.1565 -4.89933,1.83437 -7.73332,7.38232 -6.15643,12.05216 1.29145,3.82453 24.84473,34.38671 28.62953,37.14899 4.96125,3.62091 11.72493,4.03417 17.43005,1.06498 z"
         id="path786544" />
      <path
         style="fill:#7086ed"
         d="m 343.11298,498.51214 c -19.75176,-4.46068 -34.52081,-12.25595 -48.65165,-25.67887 L 287.26767,466 H 175.594 c -107.80308,0 -111.80227,-0.0659 -115.383838,-1.90268 -4.690987,-2.40568 -7.692555,-5.61427 -9.662434,-10.32885 -2.359381,-5.64679 -2.359381,-423.890147 0,-429.536941 1.969879,-4.714584 4.971447,-7.923168 9.662434,-10.328847 5.807736,-2.978381 310.771938,-2.978381 316.579678,0 4.69099,2.405679 7.69255,5.614263 9.66243,10.328847 C 387.82387,27.514223 388,43.639337 388,165.92934 v 137.99357 l 4.25,1.12718 c 18.28129,4.84856 40.82,21.25737 52.52438,38.23925 40.04956,58.10784 11.36365,135.07288 -57.52652,154.34518 -8.12646,2.27341 -35.54057,2.81853 -44.13488,0.87762 z M 281,457.61089 c 0,-0.21401 -1.80768,-3.47651 -4.01706,-7.25 -12.15716,-20.7637 -16.4424,-46.36628 -11.52561,-68.86089 0.96174,-4.4 2.1323,-9.87832 2.60125,-12.17405 1.01822,-4.98466 6.39695,-17.15135 8.27427,-18.71642 0.732,-0.61024 3.44462,-4.13347 6.02805,-7.8294 19.58316,-28.01619 45.06292,-40.99152 80.8891,-41.192 L 379,301.5 V 165.15429 C 379,13.53514 379.52275,24.899537 372.39281,21.516158 367.32926,19.113347 69.428856,19.228129 64.357078,21.634845 57.481732,24.89741 58,7.1727292 58,239.04605 c 0,195.92365 0.114958,210.33997 1.698661,213.02097 3.663247,6.20138 -2.464006,5.88525 114.551339,5.91021 58.7125,0.0125 106.75,-0.15233 106.75,-0.36634 z M 104.5,279.59749 c -7.35239,-3.24543 -6.968247,-0.47285 -7.278201,-52.53098 l -0.278201,-46.72509 2.196101,-2.79189 C 103.43876,172.08417 104.22528,172 151,172 c 47.60793,0 48.24693,0.0761 51.97437,6.18982 1.94529,3.19067 2.01829,4.93854 2.02189,48.4123 l 0.004,45.10211 -2.28463,3.39789 c -1.30537,1.94145 -3.76998,3.90947 -5.75,4.59144 -5.23017,1.80139 -88.3624,1.71502 -92.46537,-0.0961 z m 252.17129,161.1414 c 2.55824,-1.77322 45.58277,-49.94735 58.68577,-65.70986 5.89913,-7.09647 1.42571,-17.03483 -7.66282,-17.02406 -5.57371,0.007 -5.15343,-0.39701 -34.61814,33.24503 -13.84907,15.8125 -25.3614,28.75 -25.58297,28.75 -0.22156,0 -4.87414,-5.7375 -10.33906,-12.75 -12.57027,-16.12998 -13.26382,-16.75 -18.73633,-16.75 -5.57801,0 -9.3272,3.40605 -10.1012,9.17671 -0.49754,3.70938 -0.0697,4.59235 6.25123,12.90258 16.84403,22.14499 21.59495,27.59103 25.77174,29.54248 5.14366,2.40319 11.66642,1.85088 16.33178,-1.38288 z"
         id="path786543" />
      <path
         style="fill:#5798e8"
         d="m 343.11298,498.51214 c -19.60553,-4.42766 -34.62542,-12.35532 -48.65165,-25.67887 L 287.26767,466 H 175.594 c -107.80308,0 -111.80227,-0.0659 -115.383838,-1.90268 -4.690987,-2.40568 -7.692555,-5.61427 -9.662434,-10.32885 -2.359381,-5.64679 -2.359381,-423.890147 0,-429.536941 1.969879,-4.714584 4.971447,-7.923168 9.662434,-10.328847 5.807736,-2.978381 310.771938,-2.978381 316.579678,0 4.69099,2.405679 7.69255,5.614263 9.66243,10.328847 C 387.82387,27.514223 388,43.639337 388,165.92934 v 137.99357 l 4.25,1.12718 c 25.26085,6.69967 51.97647,30.72537 62.63511,56.32857 23.80313,57.17768 -7.03544,119.30226 -67.63725,136.25586 -8.12646,2.27341 -35.54057,2.81853 -44.13488,0.87762 z m 14.61619,-7.11631 c -0.33229,-0.33229 -1.1948,-0.36781 -1.91667,-0.0789 -0.79773,0.31922 -0.56078,0.55618 0.60417,0.60416 1.05416,0.0434 1.64479,-0.19293 1.3125,-0.52522 z m 14,0 c -0.33229,-0.33229 -1.1948,-0.36781 -1.91667,-0.0789 -0.79773,0.31922 -0.56078,0.55618 0.60417,0.60416 1.05416,0.0434 1.64479,-0.19293 1.3125,-0.52522 z m -13,-21 c -0.33229,-0.33229 -1.1948,-0.36781 -1.91667,-0.0789 -0.79773,0.31922 -0.56078,0.55618 0.60417,0.60416 1.05416,0.0434 1.64479,-0.19293 1.3125,-0.52522 z m 11,0 c -0.33229,-0.33229 -1.1948,-0.36781 -1.91667,-0.0789 -0.79773,0.31922 -0.56078,0.55618 0.60417,0.60416 1.05416,0.0434 1.64479,-0.19293 1.3125,-0.52522 z M 277.87038,451.40692 C 261.83511,425.01233 259.53857,390.36138 271.87852,361 c 8.53003,-20.29614 27.64841,-40.11528 48.1931,-49.95956 14.48332,-6.93988 25.72969,-9.32209 44.19566,-9.36153 l 15.76729,-0.0337 -0.26729,-136.57262 C 379.47622,16.346795 379.87462,25.723592 373.68618,21.950227 368.6839,18.900121 68.3161,18.900121 63.313822,21.950227 57.06697,25.759204 57.5,9.5927264 57.5,239 c 0,229.40727 -0.43303,213.2408 5.813822,217.04977 3.102704,1.89186 6.007468,1.94285 110.874088,1.94649 L 281.87582,458 Z M 102.21679,278.4393 C 97.034915,274.80977 97,274.46215 97,226.5 c 0,-47.96215 0.03491,-48.30977 5.21679,-51.9393 3.36347,-2.35586 92.35501,-2.35061 96.91165,0.006 C 204.8751,177.53813 205,178.64288 205,226.5 c 0,47.85712 -0.1249,48.96187 -5.87156,51.93358 -4.55664,2.35633 -93.54818,2.36158 -96.91165,0.006 z m 252.36354,163.821 c 3.26908,-1.55891 56.19053,-60.07157 61.66308,-68.17785 3.7801,-5.59932 1.28243,-13.37936 -5.15071,-16.04405 -6.31289,-2.61489 -7.89001,-1.25824 -36.6815,31.55349 -21.35723,24.33942 -26.99841,30.23127 -27.95767,29.20003 -0.66096,-0.71056 -5.56673,-6.91692 -10.9017,-13.79192 -5.33498,-6.875 -10.67913,-13.04655 -11.8759,-13.71456 -8.68588,-4.8483 -19.14035,5.24721 -14.52918,14.0303 1.38998,2.64755 20.94189,27.83951 25.26427,32.55213 5.60383,6.10976 13.13064,7.74894 20.16931,4.39243 z M 296.5,339 c 0.99549,-1.1 1.58498,-2 1.30998,-2 -0.275,0 -1.31449,0.9 -2.30998,2 -0.99549,1.1 -1.58498,2 -1.30998,2 0.275,0 1.31449,-0.9 2.30998,-2 z m 5.62756,-5.75 c 1.24387,-1.58606 1.2085,-1.62143 -0.37756,-0.37756 -1.66575,1.30637 -2.19548,2.12756 -1.37244,2.12756 0.20765,0 0.99515,-0.7875 1.75,-1.75 z M 365.25,330.29427 c -1.2375,-0.23836 -3.2625,-0.23836 -4.5,0 -1.2375,0.23835 -0.225,0.43337 2.25,0.43337 2.475,0 3.4875,-0.19502 2.25,-0.43337 z m 1.51791,-21.0088 c -1.50265,-0.22817 -4.20265,-0.23276 -6,-0.0102 -1.79735,0.22256 -0.56791,0.40925 2.73209,0.41486 3.3,0.006 4.77056,-0.17648 3.26791,-0.40466 z"
         id="path786542" />
      <path
         style="fill:#7374ef"
         d="m 343.11298,498.51214 c -19.60553,-4.42766 -34.62542,-12.35532 -48.65165,-25.67887 L 287.26767,466 H 175.594 c -107.80308,0 -111.80227,-0.0659 -115.383838,-1.90268 -4.690987,-2.40568 -7.692555,-5.61427 -9.662434,-10.32885 -2.359381,-5.64679 -2.359381,-423.890147 0,-429.536941 1.969879,-4.714584 4.971447,-7.923168 9.662434,-10.328847 5.807736,-2.978381 310.771938,-2.978381 316.579678,0 4.69099,2.405679 7.69255,5.614263 9.66243,10.328847 C 387.82387,27.514223 388,43.639337 388,165.92934 v 137.99357 l 4.25,1.12718 c 25.26085,6.69967 51.97647,30.72537 62.63511,56.32857 23.80313,57.17768 -7.03544,119.30226 -67.63725,136.25586 -8.12646,2.27341 -35.54057,2.81853 -44.13488,0.87762 z m 25.16719,-7.24287 c -2.3209,-0.20972 -6.3709,-0.21222 -9,-0.006 -2.62909,0.20667 -0.73017,0.37827 4.21983,0.38131 4.95,0.003 7.10108,-0.16605 4.78017,-0.37577 z M 351.75,490.31067 c -0.9625,-0.25152 -2.5375,-0.25152 -3.5,0 -0.9625,0.25153 -0.175,0.45733 1.75,0.45733 1.925,0 2.7125,-0.2058 1.75,-0.45733 z m 26,0 c -0.9625,-0.25152 -2.5375,-0.25152 -3.5,0 -0.9625,0.25153 -0.175,0.45733 1.75,0.45733 1.925,0 2.7125,-0.2058 1.75,-0.45733 z M 344,489 c -3.41917,-1.09501 -6.04822,-1.09501 -3.5,0 1.1,0.47269 2.9,0.8462 4,0.83003 1.60779,-0.0236 1.50973,-0.1864 -0.5,-0.83003 z m 45.64466,-1.1155 c 25.21913,-7.78241 46.76025,-27.00722 57.00975,-50.87951 1.77224,-4.12774 3.4805,-8.85499 3.79614,-10.50499 0.31564,-1.65 -0.32188,-0.58552 -1.4167,2.3655 -10.79788,29.1051 -33.95215,50.95766 -62.53385,59.0183 -3.85,1.08578 -6.2599,2.00611 -5.35534,2.04517 0.90457,0.0391 4.72957,-0.88094 8.5,-2.04447 z m -58.34312,-2.79369 C 305.18814,474.78704 285.77403,454.06701 276.87201,427 c -1.53755,-4.675 -2.81275,-7.79132 -2.83378,-6.92515 -0.0641,2.6384 4.46885,15.00954 8.24364,22.49844 7.40684,14.69463 19.39491,27.493 34.09172,36.39605 5.06978,3.07117 18.71023,9.0124 20.62641,8.98403 0.825,-0.0122 -1.73931,-1.30037 -5.69846,-2.86256 z M 357,470.35216 c -30.60284,-4.59621 -51.08788,-20.85635 -60.2287,-47.80692 -1.50079,-4.42488 -2.73829,-7.32819 -2.75,-6.45179 -0.0736,5.50325 7.57409,21.35022 14.52483,30.09744 10.57431,13.30732 32.48307,24.78088 46.95387,24.58962 2.2,-0.0291 2.875,-0.22184 1.5,-0.42835 z m 16.25,-0.0579 c -1.2375,-0.23836 -3.2625,-0.23836 -4.5,0 -1.2375,0.23835 -0.225,0.43337 2.25,0.43337 2.475,0 3.4875,-0.19502 2.25,-0.43337 z m 10.81684,-1.90676 c 13.87016,-4.11899 27.42128,-13.61943 36.00466,-25.24218 5.03544,-6.81849 10.57245,-18.57113 11.48476,-24.37711 0.30523,-1.94249 -0.23682,-1.03656 -1.33626,2.23331 -7.8202,23.25811 -25.51369,40.3677 -48.72,47.11219 -3.3,0.95909 -5.29418,1.77585 -4.4315,1.81504 0.86267,0.0392 4.01192,-0.65438 6.99834,-1.54125 z M 277.87038,451.40692 C 261.83511,425.01233 259.53857,390.36138 271.87852,361 c 8.53003,-20.29614 27.64841,-40.11528 48.1931,-49.95956 14.48332,-6.93988 25.72969,-9.32209 44.19566,-9.36153 l 15.76729,-0.0337 -0.26729,-136.57262 C 379.47622,16.346795 379.87462,25.723592 373.68618,21.950227 368.6839,18.900121 68.3161,18.900121 63.313822,21.950227 57.06697,25.759204 57.5,9.5927264 57.5,239 c 0,229.40727 -0.43303,213.2408 5.813822,217.04977 3.102704,1.89186 6.007468,1.94285 110.874088,1.94649 L 281.87582,458 Z M 102.21679,278.4393 C 97.034915,274.80977 97,274.46215 97,226.5 c 0,-47.96215 0.03491,-48.30977 5.21679,-51.9393 3.36347,-2.35586 92.35501,-2.35061 96.91165,0.006 C 204.8751,177.53813 205,178.64288 205,226.5 c 0,47.85712 -0.1249,48.96187 -5.87156,51.93358 -4.55664,2.35633 -93.54818,2.36158 -96.91165,0.006 z M 153.81037,264.75 c 0.20721,-2.50369 0.80206,-3.75 1.78983,-3.75 4.80744,0 12.32993,-6.1952 14.85207,-12.23153 4.46214,-10.67941 0.0722,-20.48513 -11.06354,-24.71216 L 154.5,222.20058 v -9.85029 c 0,-11.15528 1.39132,-12.85419 4.99806,-6.10299 1.88157,3.52199 2.28753,3.74746 6.75194,3.75 4.47783,0.003 4.75,-0.14984 4.75,-2.65944 0,-6.39599 -6.0022,-12.58703 -15.18237,-15.66002 -1.02051,-0.34161 -1.80732,-1.86427 -2,-3.8705 -0.26598,-2.7695 -0.76483,-3.3588 -3.06763,-3.62376 -2.58838,-0.29783 -2.75,-0.0848 -2.75,3.625 0,3.64264 -0.24513,3.99045 -3.23364,4.58815 -7.60996,1.52199 -14.915,9.65134 -14.65927,16.31343 0.087,2.26567 0.28117,2.01533 1.03359,-1.3324 1.27073,-5.65386 6.27139,-11.03624 12.35932,-13.30275 4.60844,-1.7157 5.02431,-2.14393 5.31037,-5.46824 0.44831,-5.20986 4.18963,-5.27718 4.18963,-0.0754 0,2.48574 0.51818,3.69525 1.75,4.08478 8.84075,2.79567 13.63481,7.05787 14.8667,13.21735 0.62824,3.1412 0.60074,3.16649 -3.44478,3.16649 -3.6694,0 -4.24278,-0.34707 -5.7215,-3.46324 -1.63079,-3.43663 -4.50402,-5.2397 -6.44147,-4.04229 -0.57529,0.35555 -1.00895,5.1515 -1.00895,11.15817 0,10.03928 0.1043,10.56188 2.21839,11.11472 1.22011,0.31907 4.431,1.73944 7.13532,3.15638 13.84201,7.25261 10.76222,27.00582 -5.06067,32.45819 -3.35417,1.1558 -3.82895,1.72999 -4.10341,4.96255 -0.44612,5.25446 -3.93269,5.2579 -4.37926,0.004 -0.28752,-3.38238 -0.64168,-3.74827 -4.81037,-4.96958 -7.04373,-2.06363 -13.88542,-9.88537 -12.6797,-14.49603 0.27085,-1.03575 0.0846,-1.88319 -0.41392,-1.88319 -1.38412,0 -1.07939,4.76679 0.49861,7.79966 2.1348,4.10303 5.8021,7.09333 11.20628,9.13755 4.50437,1.70386 4.91341,2.13756 5.20269,5.51627 0.28485,3.32708 0.56296,3.63826 3,3.35677 2.31476,-0.26737 2.72894,-0.82859 2.99641,-4.06025 z m -5.02762,-23.86337 -0.28275,-11.11336 -5.23878,-1.95234 c -6.68944,-2.49295 -10.88899,-6.69032 -12.09973,-12.09346 -0.82428,-3.67847 -0.96073,-3.83787 -1.05066,-1.22747 -0.203,5.89232 4.77668,11.32363 13.31841,14.52631 l 4.07076,1.52632 0.2858,10.29793 c 0.28377,10.22458 0.26952,10.29562 -2,9.97368 -1.48284,-0.21034 -2.92947,-1.64154 -4.11816,-4.07424 -1.00779,-2.0625 -2.35779,-3.71447 -3,-3.67105 -0.80326,0.0543 -0.77756,0.23635 0.0824,0.58333 0.6875,0.27741 1.25,1.28203 1.25,2.23249 0,2.61335 3.75869,6.10523 6.57171,6.10523 h 2.49379 z m 9.67245,10.49219 c 7.1045,-2.72625 4.51464,-20.23027 -2.83798,-19.18097 -1.96771,0.28081 -2.13743,0.99064 -2.40343,10.05215 -0.30566,10.41245 0.0919,11.10487 5.24141,9.12882 z M 154,242 c 0,-10.04721 0.69587,-10.86474 5.4766,-6.4341 2.43635,2.25793 2.70812,3.10295 2.26429,7.04058 C 161.18932,247.49996 158.73078,251 155.84501,251 154.18833,251 154,250.08132 154,242 Z m -5.21379,-31.26158 c 0.15742,-5.35613 -0.0676,-9.73907 -0.5,-9.73987 -0.43241,-8e-4 -0.78621,4.12288 -0.78621,9.16373 0,10.20781 -0.74429,11.3207 -4.83523,7.22977 -3.8179,-3.81791 -3.7089,-9.50177 0.25831,-13.46897 C 144.60125,202.2449 145.27099,201 144.49566,201 141.86857,201 139,206.06926 139,210.71178 c 0,3.6013 0.56725,5.00932 2.99698,7.43905 5.19944,5.19943 6.45899,3.82427 6.78923,-7.41241 z M 354.58033,442.2603 c 3.26908,-1.55891 56.19053,-60.07157 61.66308,-68.17785 3.7801,-5.59932 1.28243,-13.37936 -5.15071,-16.04405 -6.31289,-2.61489 -7.89001,-1.25824 -36.6815,31.55349 -21.35723,24.33942 -26.99841,30.23127 -27.95767,29.20003 -0.66096,-0.71056 -5.56673,-6.91692 -10.9017,-13.79192 -5.33498,-6.875 -10.67913,-13.04655 -11.8759,-13.71456 -8.68588,-4.8483 -19.14035,5.24721 -14.52918,14.0303 1.38998,2.64755 20.94189,27.83951 25.26427,32.55213 5.60383,6.10976 13.13064,7.74894 20.16931,4.39243 z m 97.10278,-21.4478 c -0.31922,-0.79773 -0.55618,-0.56078 -0.60416,0.60417 -0.0434,1.05416 0.19293,1.64479 0.52522,1.3125 0.33229,-0.33229 0.36781,-1.1948 0.0789,-1.91667 z m 1.00988,-5.54347 c -0.25354,-0.97297 -0.47766,-0.41903 -0.49804,1.23097 -0.0204,1.65 0.18706,2.44606 0.46099,1.76903 0.27392,-0.67703 0.29059,-2.02703 0.0371,-3 z m -179,-1 c -0.25354,-0.97297 -0.47766,-0.41903 -0.49804,1.23097 -0.0204,1.65 0.18706,2.44606 0.46099,1.76903 0.27392,-0.67703 0.29059,-2.02703 0.0371,-3 z m 159,-3 c -0.25354,-0.97297 -0.47766,-0.41903 -0.49804,1.23097 -0.0204,1.65 0.18706,2.44606 0.46099,1.76903 0.27392,-0.67703 0.29059,-2.02703 0.0371,-3 z M 293.68933,409.25 c -0.25153,-0.9625 -0.45733,-0.175 -0.45733,1.75 0,1.925 0.2058,2.7125 0.45733,1.75 0.25152,-0.9625 0.25152,-2.5375 0,-3.5 z m 160.01793,-1.48834 c -0.23919,-1.24391 -0.44398,-0.46166 -0.45508,1.73834 -0.0111,2.2 0.18461,3.21775 0.4349,2.26166 0.25029,-0.95609 0.25937,-2.75609 0.0202,-4 z M 272.73899,395.25 c -0.19845,-3.1625 -0.36082,-0.575 -0.36082,5.75 0,6.325 0.16237,8.9125 0.36082,5.75 0.19845,-3.1625 0.19845,-8.3375 0,-11.5 z m 160.99322,1.5 c -0.21054,-2.3375 -0.3828,-0.425 -0.3828,4.25 0,4.675 0.17226,6.5875 0.3828,4.25 0.21053,-2.3375 0.21053,-6.1625 0,-8.5 z m -141.00748,1.01791 c -0.22256,-1.79735 -0.40925,-0.56791 -0.41486,2.73209 -0.006,3.3 0.17648,4.77056 0.40466,3.26791 0.22817,-1.50265 0.23276,-4.20265 0.0102,-6 z m 160.98253,-8.00625 c -0.23919,-1.24391 -0.44398,-0.46166 -0.45508,1.73834 -0.0111,2.2 0.18461,3.21775 0.4349,2.26166 0.25029,-0.95609 0.25937,-2.75609 0.0202,-4 z M 297.97942,375 c 8.08956,-20.46595 25.77956,-36.18242 47.39325,-42.106 5.19143,-1.42279 5.93603,-1.80037 2.74137,-1.39012 -17.97706,2.30857 -39.08273,18.41979 -48.00596,36.64582 -4.18661,8.5513 -7.18134,18.29037 -7.01411,22.8104 0.0517,1.39694 0.6829,-0.3851 1.40271,-3.9601 0.71982,-3.575 2.28705,-8.975 3.48274,-12 z m 133.49328,6.85172 c -4.74114,-18.4212 -18.68193,-35.85416 -35.45798,-44.34022 -5.42057,-2.74196 -17.38179,-6.53316 -20.37006,-6.45644 -1.17956,0.0303 1.05908,0.89504 4.97477,1.92168 24.98844,6.55161 45.52516,27.677 50.53606,51.98466 0.7326,3.55376 1.47149,5.73704 1.64198,4.85171 0.1705,-0.88532 -0.42565,-4.46795 -1.32477,-7.96139 z M 274.78201,380.5 c 0.0146,-1.5672 -0.15463,-1.45899 -0.78201,0.5 -0.44035,1.375 -0.79225,3.625 -0.78201,5 0.0167,2.2456 0.0963,2.19472 0.78201,-0.5 0.41985,-1.65 0.77176,-3.9 0.78201,-5 z m 176.68389,-2.64828 c -6.48315,-25.08513 -24.53544,-47.32993 -47.9659,-59.10565 -5.55002,-2.78934 -20.65406,-7.77582 -23.30162,-7.69284 -0.93411,0.0293 1.90162,1.12019 6.30162,2.42426 32.19169,9.54095 57.28949,35.28388 64.22119,65.87199 0.97835,4.31722 1.91549,7.17549 2.08255,6.35172 0.16705,-0.82377 -0.43498,-4.35604 -1.33784,-7.84948 z M 282.48589,360 c 12.87314,-24.98698 37.43633,-43.11556 65.85568,-48.60403 l 7.15843,-1.38247 -5.90225,0.51988 c -30.1067,2.65185 -61.91756,28.92411 -72.59348,59.95421 -3.00297,8.72829 -2.3206,9.12307 0.8857,0.51241 1.53601,-4.125 3.60417,-9.075 4.59592,-11 z M 368.25,330.26276 c -2.8875,-0.202 -7.6125,-0.202 -10.5,0 -2.8875,0.202 -0.525,0.36728 5.25,0.36728 5.775,0 8.1375,-0.16528 5.25,-0.36728 z m 8.5,-19.95209 c -0.9625,-0.25152 -2.5375,-0.25152 -3.5,0 -0.9625,0.25153 -0.175,0.45733 1.75,0.45733 1.925,0 2.7125,-0.2058 1.75,-0.45733 z m -9.98209,-1.0252 c -1.50265,-0.22817 -4.20265,-0.23276 -6,-0.0102 -1.79735,0.22256 -0.56791,0.40925 2.73209,0.41486 3.3,0.006 4.77056,-0.17648 3.26791,-0.40466 z"
         id="path786541" />
      <path
         style="fill:#00dddd"
         d="m 348.83086,490.04415 c -42.73018,-7.82664 -73.95679,-43.17597 -75.57789,-85.55613 -1.42101,-37.14916 18.15044,-69.34411 51.98762,-85.51943 C 394.19643,286.00535 472.08864,352.94273 449.78854,426 440.75976,455.57915 416.15011,479.50607 386,488.01891 c -8.38519,2.36755 -29.12937,3.49784 -37.16914,2.02524 z m 32.39483,-20.97399 c 68.49617,-17.51837 70.46264,-114.96125 2.74909,-136.2231 -11.54387,-3.62474 -32.27709,-3.3781 -43.47478,0.51717 -11.91643,4.14529 -18.0712,8.06156 -27.59973,17.56168 -25.25075,25.17546 -27.55752,64.61837 -5.48521,93.78997 8.50023,11.23422 23.97602,21.25656 38.09177,24.66876 9.00904,2.17776 26.57913,2.02307 35.71886,-0.31448 z M 148.81037,264.3488 c -0.28797,-3.38772 -0.6368,-3.74595 -4.83396,-4.96424 C 134.29965,256.57573 126.35402,243 134.38683,243 c 3.66466,0 5.61317,1.01308 5.61317,2.91843 0,2.593 3.76973,6.08157 6.57171,6.08157 h 2.49379 l -0.28275,-11.11337 -0.28275,-11.11336 -5.23878,-1.95234 c -16.7586,-6.24542 -16.86111,-26.77541 -0.16726,-33.4979 4.99107,-2.00987 5.42986,-2.45124 5.71641,-5.75 0.45006,-5.18131 4.18963,-5.21848 4.18963,-0.0416 0,2.48574 0.51818,3.69525 1.75,4.08478 8.84075,2.79567 13.63481,7.05787 14.8667,13.21735 0.62824,3.1412 0.60074,3.16649 -3.44478,3.16649 -3.6694,0 -4.24278,-0.34707 -5.7215,-3.46324 -1.63079,-3.43663 -4.50402,-5.2397 -6.44147,-4.04229 -0.57529,0.35555 -1.00895,5.1515 -1.00895,11.15817 0,10.03928 0.1043,10.56188 2.21839,11.11472 1.22011,0.31907 4.431,1.73944 7.13532,3.15638 13.84201,7.25261 10.76222,27.00582 -5.06067,32.45819 -3.35417,1.1558 -3.82895,1.72999 -4.10341,4.96255 -0.44612,5.25446 -3.93269,5.2579 -4.37926,0.004 z m 9.64483,-12.96998 c 7.1045,-2.72625 4.51464,-20.23027 -2.83798,-19.18097 -1.96771,0.28081 -2.13743,0.99064 -2.40343,10.05215 -0.30566,10.41245 0.0919,11.10487 5.24141,9.12882 z M 148.78621,210.73842 149.07242,201 h -2.96363 c -7.10091,0 -9.83953,11.42311 -4.11181,17.15083 5.19944,5.19943 6.45899,3.82427 6.78923,-7.41241 z"
         id="path786540" />
</svg>
