<svg xmlns="http://www.w3.org/2000/svg" viewBox="0 0 488.14 575.61"><defs><style>.cls-1{fill:#d5ecfd;}.cls-2{fill:#00dede;}.cls-3{fill:#76cbfe;}.cls-4{fill:#7576f4;}</style></defs><g id="Capa_2" data-name="Capa 2"><g id="Gris"><path class="cls-1" d="M258.36,422.37c-60.69.07-126.6-.41-187.29-.44-3.47,0-7-.07-10-2.15-3.82-2.61-5.34-7-4.2-12.2.86-3.88,4-6.59,8.37-7.42a36.36,36.36,0,0,1,6.83-.59q97.93,0,195.86,0a142.6,142.6,0,0,1,22-27.69c.75-.7,1.5-1.52,2.5-2.52-72.24,0-150.77-.31-223-.32-7.6,0-11.85-4.22-11.71-11.52.1-5.59,3.9-9.65,9.63-10.24a32.24,32.24,0,0,1,3.26-.05H327c.65,0,1.31,0,2,.06a18.05,18.05,0,0,0,5.53-1.14c16.52-5.73,33.52-6.47,50.71-4.66,3,.32,4,0,4-3.43Q389.1,182,389.21,25.83a16.94,16.94,0,0,0-3.45-10.44c-3.82-4.91-8.61-5.6-13.8-5.6H28c-.85,0-1.7,0-2.54,0-9.28.51-15.08,6.6-15.08,15.85q0,37,0,74,0,204.66,0,409.3a17.4,17.4,0,0,0,1.11,7.43c3.15,7,8.89,9.31,16.09,9.31q120.83,0,241.65,0H271c2.07,0,2.29-.86,1.14-2.44-5.57-7.73-9.5-16.31-12.88-25.17-2.94-7.68-4.09-15.81-5.89-23.78q-92.71,0-185.43,0a11.75,11.75,0,0,1-9-4c-3-3.46-3-7.44-1.48-11.38a9.73,9.73,0,0,1,8.5-6.37,47.76,47.76,0,0,1,5.08-.07H247.69c1.67,0,3.4.27,4.95-.68m-81-135a56.24,56.24,0,0,1-6.85.52q-45,.06-90,0c-4.81,0-9.7-.28-13.61-3.77a14.41,14.41,0,0,1-5.09-11.17c0-33-.06-66,.06-99,0-8.42,6.13-14.37,14.5-14.39q49.34-.12,98.68,0c8.52,0,14.52,6.21,14.53,14.63q0,24.67,0,49.34c0,16.45-.32,32.9.16,49.34C184.21,309,178.48,315.92,171.62,316.79Zm161-.7q-30.66,0-61.32,0c-20.2,0-40.4-.18-60.59.13A10.64,10.64,0,0,1,200,305.59a10.38,10.38,0,0,1,10.67-10.73c40.63.14,81.27.06,121.91.08,6.2,0,10.26,4.26,10.26,10.57C342.79,312,339,316.08,332.66,316.09Zm-1.08-52.23c-18-.15-36,0-54.05,0h-6.16q-29.56,0-59.12,0c-9,0-13.78-6-11.77-14.65.72-3.06,5.67-6.75,9.63-7.13.71-.07,1.45,0,2.17,0h118.6c5.74,0,9.46,2.5,11.32,6.74A11,11,0,0,1,331.58,263.86ZM205.81,190.54c1.73-1,3.49-.81,5.26-.81q30.28-.06,60.57,0t60.58,0a10.18,10.18,0,0,1,10.57,10.67c0,6.57-4,10.48-10.64,10.48H211c-5.1,0-9.37-2.76-10.47-6.69C198.92,198.36,200.9,193.47,205.81,190.54Zm137.51-81.67A16.39,16.39,0,0,1,327,125.09H199.66q-63.67,0-127.34,0c-5.73,0-10.58-1.89-13.79-7a13.34,13.34,0,0,1-1.74-9,178.85,178.85,0,0,0,0-39.79c-1-9.1,4.07-15.06,12.7-16.11a95,95,0,0,1,11.55-.48q121.19,0,242.35,0a44.9,44.9,0,0,1,9.34.83C339.1,54.87,343.28,61,343.34,69,343.44,82.27,343.49,95.57,343.32,108.87Z"/><path class="cls-1" d="M435.22,420c0,3.59-1.63,6.42-3.93,9-7.74,8.79-15.42,17.64-23.17,26.43-13.82,15.67-27.5,31.47-41.57,46.91-8.92,9.79-22.84,8.78-31.09-1.7-2.46-3.13-4.87-6.3-7.32-9.45-6.45-8.28-12.81-16.63-19.39-24.81-6-7.49-2.38-18,6.36-20.09a11,11,0,0,1,11.73,3.64c5.39,6.34,10.39,13,15.55,19.54,2.61,3.32,5.25,6.62,7.81,10,1.28,1.69,2.12,2.13,3.83.18q29.45-33.69,59.08-67.23c3.71-4.22,9.72-5.93,14.42-4A12.18,12.18,0,0,1,435.22,420Z"/></g><g id="Verde"><path class="cls-2" d="M370.94,351c-58.13-.5-108.6,48.58-107.42,106.82-1.81,58.87,49.33,108.17,106.57,107.92,59.36-.25,107.64-48.19,107.6-107.48C477.66,399.35,429.45,351.45,370.94,351Zm.16,190.26a83,83,0,0,1-83.64-80.8c-1-48.26,37.83-85.5,82.75-84.88,46.24-.57,82.1,36.81,83,80.86A82.9,82.9,0,0,1,371.1,541.21Z"/><path class="cls-2" d="M104.13,252.41a44,44,0,0,0,8.59,3.66c3.12.85,4.55,2.38,4.32,5.88-.33,5.18-.06,10.4-.09,15.6,0,1.75.57,4-1.69,4.69-2.06.63-3.64-.83-4.9-2.36a12.61,12.61,0,0,1-1.82-2.69c-2.31-5.1-4.05-6.1-9.53-5.28-3.63.54-4.32,1.92-3.23,5.5,2.49,8.25,7.9,13.5,16.25,15.24,4,.84,5.54,2.61,5,6.57-.31,2.13.13,3.77,3,3.8s3.85-1.5,3.44-3.84c-.82-4.64,1.87-6,5.6-7,15.54-4.24,19.68-23.75,12.27-34.35-3-4.28-7.55-6.26-12.3-7.71-5.46-1.67-5.5-1.54-5.51-7.29v-6.17h0c0-3.39-.09-6.78,0-10.16.09-2.54,1.33-3.18,3.58-1.81a9.76,9.76,0,0,1,4.25,5.68,3.7,3.7,0,0,0,4.3,3c1.45-.11,2.91,0,4.36,0,3.34-.11,4.24-1.39,3.39-4.63-2.1-8-7-13.43-15.13-15.39-3.7-.9-5.46-2.42-4.85-6.37.35-2.33-.52-3.95-3.32-4.06-3.12-.12-3.5,1.86-3.08,4,.82,4.28-1.64,5.89-5.09,6.67-9.13,2.07-14.32,8.09-16.27,16.85C93.94,238.08,96.21,248.3,104.13,252.41Zm19.4,11.19c.06-2.81,1.46-3.52,4.06-2.18,4.06,2.1,6,5.4,5.39,10,.61,4.67-1.64,7.88-5.33,10.24-2.31,1.47-4,.59-4.11-2.17C123.4,274.21,123.42,268.9,123.53,263.6Zm-10.28-40c2.69-1,3.35.83,3.54,2.64a78.23,78.23,0,0,1,.07,8h0c0,2.66.12,5.32,0,8-.16,2.81-1.73,3.45-4.22,2.35-3.51-1.55-5.86-5.62-5.75-10.08C107,229.16,109.5,225,113.25,223.58Z"/></g><g id="Azul"><path class="cls-3" d="M327,347.24H70.57a32.24,32.24,0,0,0-3.26.05c-5.73.59-9.53,4.65-9.63,10.24-.14,7.3,4.11,11.52,11.71,11.52,72.2,0,149.65.32,221.9.32h1.07c.85,0,8.41-6.95,12.25-9.17a194.34,194.34,0,0,1,25.33-12.87c-.31,0,.74.05.42,0C329.71,347.34,327.69,347.24,327,347.24Z"/><path class="cls-3" d="M258.36,422.37c-1-3,7.85-21,9.52-22.79q-97.93,0-195.86,0a36.36,36.36,0,0,0-6.83.59c-4.41.83-7.51,3.54-8.37,7.42-1.14,5.15.38,9.59,4.2,12.2,3,2.08,6.58,2.15,10,2.15"/><path class="cls-3" d="M252.64,451.82h0c-1.55.95-3.28.68-4.95.68H71.05a47.76,47.76,0,0,0-5.08.07,9.73,9.73,0,0,0-8.5,6.37c-1.52,4-1.48,8,1.6,11.52,2.49,2.83,5.57,3.84,9.34,3.83q92.49-.07,185,0C252.15,466.84,252.86,459.32,252.64,451.82Z"/><path class="cls-3" d="M343.34,69c-.06-8-4.24-14.1-10.58-15.46a44.9,44.9,0,0,0-9.34-.83q-121.17-.06-242.35,0a95,95,0,0,0-11.55.48c-7.87,1-12.82,6-12.84,13.78,0,14.76,0,29.51,0,44.26A12.42,12.42,0,0,0,58.53,118c3.21,5.15,8.06,7,13.79,7q63.66.06,127.34,0h127c10.34,0,16.55-5.88,16.68-16.22C343.49,95.57,343.44,82.27,343.34,69Z"/><path class="cls-3" d="M330.88,242H212.28c-.72,0-1.46,0-2.17,0-4,.38-8.91,4.07-9.63,7.13-2,8.64,2.78,14.64,11.77,14.65q29.57,0,59.12,0h6.16c18,0,36-.11,54.05,0a11,11,0,0,0,10.62-15.12C340.34,244.5,336.62,242,330.88,242Z"/><path class="cls-3" d="M332.53,294.94c-40.64,0-81.28.06-121.91-.08A10.38,10.38,0,0,0,200,305.59a10.64,10.64,0,0,0,10.8,10.64c20.19-.31,40.39-.13,60.59-.13q30.66,0,61.32,0c6.29,0,10.13-4.1,10.13-10.58C342.79,299.2,338.73,294.94,332.53,294.94Z"/><path class="cls-3" d="M211,210.87H332.15c6.69,0,10.61-3.91,10.64-10.48a10.18,10.18,0,0,0-10.57-10.67q-30.29,0-60.58,0t-60.57,0c-1.77,0-3.53-.22-5.26.81-4.91,2.93-6.89,7.82-5.28,13.64C201.63,208.11,205.9,210.87,211,210.87Z"/></g><g id="Morado"><path class="cls-4" d="M487.17,444.34a174.48,174.48,0,0,0-4.85-21.73,103.6,103.6,0,0,0-21.49-39.49c-9.38-10.92-19.87-20.94-33.08-27.49-7.45-3.69-14.81-7.6-22.86-9.82-5.37-1.48-5.44-1.24-5.44-6.74q0-158.59.06-317.18C399.52,11.53,388,0,377.92.05Q200.28.43,22.64,0C11.28,0,0,11.67,0,22.68q.2,122.48.07,245,0,121.58,0,243.14A28.48,28.48,0,0,0,1.4,520.3c2.56,7.41,12,15.08,20.71,15.06,84.56-.21,169.12-.1,253.67-.21,3.94,0,6.77,1,9.45,3.88a108,108,0,0,0,38.7,27.26c10.22,4.26,20.72,8.06,31.6,8.69,15.58.9,31.39,1.55,46.69-3.35,6.91-2.22,13.82-4.38,20.26-7.77A141.24,141.24,0,0,0,449,545.67c7-6,12.54-13.07,17.95-20.35,5.86-7.88,9.89-16.74,13.57-25.79a105.64,105.64,0,0,0,7.21-32.12A102.6,102.6,0,0,0,487.17,444.34ZM289.86,371.89a142.6,142.6,0,0,0-22,27.69h0c-1.67,1.75-2.48,4-3.51,6.12a84.84,84.84,0,0,0-7.21,19.85,114.82,114.82,0,0,0-4.52,26.27h0c.22,7.5-.49,15,.75,22.48,1.8,8,2.95,16.1,5.89,23.78,3.38,8.86,7.31,17.44,12.88,25.17,1.15,1.58.93,2.42-1.14,2.44H269.2q-120.82,0-241.65,0c-7.2,0-12.94-2.3-16.09-9.31A17.4,17.4,0,0,1,10.35,509q0-204.64,0-409.3,0-37,0-74c0-9.25,5.8-15.34,15.08-15.85.84,0,1.69,0,2.54,0H372c4.66,0,9,.56,12.59,4.21a15.1,15.1,0,0,1,4.66,11.29q-.09,156.39.05,312.78c0,3.47-1,3.75-4,3.43-17.19-1.81-34.19-1.07-50.71,4.66-1.79.62-4.9,1.16-4.59,1.17a194.34,194.34,0,0,0-25.33,12.87c-3.84,2.22-11.4,9.17-12.25,9.17m77.73,196.32c-57.24.25-108.38-49.05-106.57-107.92C262.34,399.53,312.81,350.45,370.94,351c58.51.5,106.72,48.4,106.75,107.26C477.73,517.5,429.45,565.44,370.09,565.69Z"/><path class="cls-4" d="M370.21,375.53c-44.92-.62-83.79,36.62-82.75,84.88a82.91,82.91,0,0,0,165.77-4C452.31,412.34,416.45,375,370.21,375.53Zm64.88,44.56c0,3.6-1.63,6.43-3.92,9-7.75,8.8-15.43,17.64-23.18,26.43-13.81,15.67-27.49,31.47-41.56,46.91-8.92,9.79-22.85,8.78-31.1-1.7-2.46-3.13-4.87-6.3-7.32-9.44-6.45-8.29-12.81-16.64-19.39-24.82-6-7.49-2.38-18,6.36-20.09,4.76-1.16,8.77.14,11.73,3.64,5.39,6.34,10.39,13,15.55,19.55,2.62,3.31,5.26,6.61,7.81,10,1.28,1.69,2.13,2.13,3.83.18q29.46-33.69,59.08-67.23c3.71-4.22,9.72-5.93,14.43-4A12.15,12.15,0,0,1,435.09,420.09Z"/><path class="cls-4" d="M183.86,252.89q0-24.67,0-49.34c0-8.42-6-14.61-14.53-14.63q-49.34-.09-98.68,0c-8.37,0-14.47,6-14.5,14.39-.12,33,0,66-.06,99a14.41,14.41,0,0,0,5.09,11.17c3.91,3.49,8.8,3.75,13.61,3.77q45,.1,90,0a56.24,56.24,0,0,0,6.85-.52c6.86-.87,12.59-7.78,12.4-14.56C183.54,285.79,183.86,269.34,183.86,252.89ZM129,292.16c-3.73,1-6.42,2.38-5.6,7,.41,2.34-.59,3.87-3.44,3.84s-3.28-1.67-3-3.8c.58-4-.95-5.73-5-6.57-8.35-1.74-13.76-7-16.25-15.24-1.09-3.58-.4-5,3.23-5.5,5.48-.82,7.22.18,9.53,5.28a12.61,12.61,0,0,0,1.82,2.69c1.26,1.53,2.84,3,4.9,2.36,2.26-.69,1.67-2.94,1.69-4.69,0-5.2-.24-10.42.09-15.6.23-3.5-1.2-5-4.32-5.88a44,44,0,0,1-8.59-3.66c-7.92-4.11-10.19-14.33-8.47-22,2-8.76,7.14-14.78,16.27-16.85,3.45-.78,5.91-2.39,5.09-6.67-.42-2.17,0-4.15,3.08-4,2.8.11,3.67,1.73,3.32,4.06-.61,4,1.15,5.47,4.85,6.37,8.1,2,13,7.35,15.13,15.39.85,3.24-.05,4.52-3.39,4.63-1.45,0-2.91-.08-4.36,0a3.7,3.7,0,0,1-4.3-3,9.76,9.76,0,0,0-4.25-5.68c-2.25-1.37-3.49-.73-3.58,1.81-.12,3.38,0,6.77,0,10.16h0v6.17c0,5.75.05,5.62,5.51,7.29,4.75,1.45,9.31,3.43,12.3,7.71C148.68,268.41,144.54,287.92,129,292.16Z"/><path class="cls-4" d="M116.79,226.22c-.19-1.81-.85-3.67-3.54-2.64-3.75,1.44-6.24,5.58-6.37,10.84-.11,4.46,2.24,8.53,5.75,10.08,2.49,1.1,4.06.46,4.22-2.35.15-2.65,0-5.31,0-8h0A78.23,78.23,0,0,0,116.79,226.22Z"/><path class="cls-4" d="M127.59,261.42c-2.6-1.34-4-.63-4.06,2.18-.11,5.3-.13,10.61,0,15.91.08,2.76,1.8,3.64,4.11,2.17,3.69-2.36,5.94-5.57,5.33-10.24C133.61,266.82,131.65,263.52,127.59,261.42Z"/></g></g></svg>