<?xml version="1.0" encoding="UTF-8" standalone="no"?>
<svg
   viewBox="0 0 201 201"
   version="1.1"
   xmlns:inkscape="http://www.inkscape.org/namespaces/inkscape"
   xmlns:sodipodi="http://sodipodi.sourceforge.net/DTD/sodipodi-0.dtd"
   xmlns:xlink="http://www.w3.org/1999/xlink"
   xmlns="http://www.w3.org/2000/svg"
   xmlns:svg="http://www.w3.org/2000/svg">
    <path
       style="fill:#daeafc"
       d="M 67.497322,178.23 H 25.84519 l -1.035387,-0.81444 -1.035387,-0.81443 -0.577208,-1.1162 L 22.62,174.36873 V 93.21 12.051265 L 23.197208,10.935068 23.774416,9.8188709 24.809803,9.0044355 25.84519,8.19 H 85.215 144.58481 l 1.03539,0.8144355 1.03538,0.8144354 0.57721,1.1161971 0.57721,1.116197 -9.8e-4,52.766868 -9.7e-4,52.766867 -6.72653,0.008 -6.72652,0.008 -3.02685,0.86917 -3.02685,0.86917 H 84.808122 41.314947 l -1.321082,0.55198 -1.321082,0.55199 -0.421391,0.78737 -0.421392,0.78738 v 1.22564 1.22564 l 1.14,1.14 1.14,1.14 H 77.809551 115.5091 l -2.41237,2.6325 -2.41237,2.6325 -1.57648,2.4375 -1.57649,2.4375 H 73.820695 40.11 l -1.14,1.14 -1.14,1.14 v 1.22564 1.22564 l 0.421392,0.78738 0.421391,0.78737 1.321082,0.55199 1.321082,0.55198 h 31.452992 31.452991 l -0.23937,1.0725 -0.23937,1.0725 -0.66809,3.9975 -0.6681,3.9975 H 71.3199 40.233794 l -0.631321,0.24226 -0.631321,0.24226 -0.570576,1.10337 -0.570576,1.10338 v 1.02436 1.02437 l 1.14,1.14 1.14,1.14 h 31.384965 31.384965 l 0.4452,2.55652 0.4452,2.55652 1.16493,3.21944 1.16493,3.21944 1.52463,2.60904 1.52464,2.60904 z m -8.666262,-68.64888 17.296059,0.009 1.246076,-0.5913 1.246076,-0.5913 0.665365,-1.12638 L 79.95,106.15477 V 88.33512 70.515468 L 79.284636,69.388976 78.619271,68.262604 77.373195,67.671302 76.127119,67.08 H 58.916033 41.704947 l -1.272756,0.531792 -1.272756,0.531791 -0.762218,1.125709 L 37.635,70.395 v 17.94 17.94 l 0.70145,1.03297 0.70145,1.03296 1.24855,0.61566 1.24855,0.61565 z M 108.9526,109.2 h 21.62806 l 1.00967,-1.19992 1.00967,-1.19993 V 105.63008 104.46 l -1.14,-1.14 -1.14,-1.14 H 108.82227 87.324545 l -0.957272,0.95727 -0.957273,0.95728 v 1.59545 1.59545 l 0.957273,0.95728 0.957272,0.95727 z m -0.0257,-17.190789 20.59186,0.03079 1.13908,-0.589037 1.13907,-0.589036 0.40156,-0.750325 0.40156,-0.750324 v -1.108861 -1.108862 l -0.56947,-0.813029 -0.56946,-0.813029 -1.09553,-0.45378 -1.09552,-0.45378 -20.92383,0.107531 L 87.422362,84.825 86.416181,85.770482 85.41,86.715965 V 88.335 89.954035 l 0.8775,0.798343 0.8775,0.798343 0.585,0.21385 0.585,0.21385 z M 108.89695,74.49 H 130.32 l 1.14,-1.14 1.14,-1.14 V 71.039923 69.869846 L 131.59033,68.669923 130.58066,67.47 H 108.9526 87.324545 L 86.367273,68.427273 85.41,69.384545 v 1.59635 1.596349 L 86.441949,73.533622 87.473898,74.49 Z M 85.695059,45.900376 129.85512,45.825 l 1.27494,-1.274211 1.27494,-1.274211 0.11809,-8.747844 0.11808,-8.747845 -0.61218,-1.183843 -0.61219,-1.183843 -1.14403,-0.591602 L 129.12873,22.23 H 85.215 41.301265 l -1.144031,0.591601 -1.144031,0.591602 -0.612189,1.183843 -0.612189,1.183843 0.118088,8.72398 0.118087,8.72398 0.975,1.048225 0.975,1.048226 0.78,0.325226 0.78,0.325227 z"
       id="path7" />
    <path
       style="fill:#fde98d"
       d="m 136.305,172.88192 -1.17,0.20586 -1.23557,-0.2981 -1.23557,-0.29811 -1.01158,-0.73828 -1.01158,-0.73829 -4.86257,-6.24 -4.86258,-6.24 -0.42879,-1.26982 -0.42878,-1.26982 0.71351,-1.45266 0.71351,-1.45265 1.40277,-0.52521 1.40278,-0.52522 1.36402,0.56993 1.36403,0.56993 4.0582,5.29639 4.0582,5.29639 0.42188,-0.0836 0.42188,-0.0836 9.99928,-11.37745 9.99929,-11.37744 0.87811,-0.61506 0.87811,-0.61505 h 1.10259 1.10259 l 1.07471,0.55575 1.07471,0.55575 0.46592,1.0226 0.46593,1.0226 v 0.72975 0.72976 l -0.27301,0.71144 -0.27301,0.71145 -9.72958,11.11795 -9.72959,11.11795 -1.79491,1.8831 -1.7949,1.88309 -0.975,0.50744 -0.975,0.50743 z"
       id="path6" />
    <path
       style="fill:#93c9fd"
       d="M 71.576726,161.46 H 40.11 l -1.14,-1.14 -1.14,-1.14 v -1.02437 -1.02436 l 0.570576,-1.10338 0.570576,-1.10337 0.631321,-0.24226 0.631321,-0.24226 H 71.401897 102.57 v 2.8931 2.89311 l 0.23673,0.61689 0.23672,0.6169 z m 1.158274,-17.18565 -31.59,-0.005 -1.236792,-0.538 -1.236793,-0.53799 -0.420707,-0.7861 L 37.83,141.62128 V 140.39564 139.17 l 1.14,-1.14 1.14,-1.14 h 33.611726 33.611724 l -0.22125,0.4875 -0.22124,0.4875 -1.28298,3.20712 -1.28298,3.20712 z M 77.97551,126.75 H 40.11 l -1.14,-1.14 -1.14,-1.14 v -1.22564 -1.22564 l 0.421392,-0.78738 0.421391,-0.78737 1.321082,-0.55199 1.321082,-0.55198 h 43.337833 43.33783 l -3.9599,1.9824 -3.95991,1.98239 -2.11489,1.72261 -2.11489,1.7226 z M 108.9526,109.2 H 87.324545 L 86.367273,108.24273 85.41,107.28545 V 105.69 104.09455 l 0.957273,-0.95728 0.957272,-0.95727 H 108.82227 130.32 l 1.14,1.14 1.14,1.14 v 1.17008 1.17007 l -1.00967,1.19993 -1.00967,1.19992 z M 108.92687,92.009211 88.335,91.978421 87.75,91.764571 87.165,91.550721 86.2875,90.752378 85.41,89.954035 V 88.335 86.715965 l 1.006181,-0.945483 1.006181,-0.945482 20.923828,-0.107532 20.92383,-0.107531 1.09552,0.45378 1.09553,0.45378 0.56946,0.813029 0.56947,0.813029 v 1.108862 1.108861 l -0.40156,0.750324 -0.40156,0.750325 -1.13907,0.589036 L 129.51873,92.04 Z M 108.89695,74.49 H 87.473898 L 86.441949,73.533622 85.41,72.577244 v -1.596349 -1.59635 L 86.367273,68.427273 87.324545,67.47 h 21.628055 21.62806 l 1.00967,1.199923 1.00967,1.199923 V 71.039923 72.21 l -1.14,1.14 -1.14,1.14 z M 85.695059,45.900376 41.535,45.975753 40.755,45.650526 39.975,45.3253 39,44.277074 l -0.975,-1.048225 -0.118087,-8.72398 -0.118088,-8.72398 0.612189,-1.183843 0.612189,-1.183843 1.144031,-0.591602 L 41.301265,22.23 H 85.215 129.12873 l 1.14404,0.591601 1.14403,0.591602 0.61219,1.183843 0.61218,1.183843 -0.11808,8.747845 -0.11809,8.747844 -1.27494,1.274211 -1.27494,1.274211 z"
       id="path5" />
    <path
       style="fill:#a6aef3"
       d="m 153.855,193.44 h -0.195 v -0.195 -0.195 h 0.195 0.195 v 0.195 0.195 z m 1.17,-0.39 h -0.195 v -0.195 -0.195 h 0.195 0.195 v 0.195 0.195 z m 1.95,-0.78 h -0.195 v -0.195 -0.195 h 0.195 0.195 v 0.195 0.195 z m -31.59,-0.39 h -0.195 v -0.195 -0.195 h 0.195 0.195 v 0.195 0.195 z m -2.34,-1.17 h -0.195 v -0.195 -0.195 h 0.195 0.195 v 0.195 0.195 z m 37.83,-0.39 h -0.195 v -0.195 -0.195 h 0.195 0.195 v 0.195 0.195 z m 4.68,-3.12 h -0.195 v -0.195 -0.195 h 0.195 0.195 v 0.195 0.195 z m -48.36,-0.39 H 117 v -0.195 -0.195 h 0.195 0.195 v 0.195 0.195 z m 51.09,-1.95 h -0.195 v -0.195 -0.195 h 0.195 0.195 v 0.195 0.195 z m 1.51397,-1.56 h -0.195 l 0.24103,-0.39 0.24103,-0.39 h 0.195 0.195 l -0.24103,0.39 -0.24103,0.39 z M 23.595,181.35 H 23.4 v -0.195 -0.195 h 0.195 0.195 v 0.195 0.195 z m 44.1675,-2.82572 -41.8275,-0.0957 41.593561,-0.10105 41.593559,-0.10104 -1.71606,-3.0113 -1.71606,-3.01129 0.005,-0.39945 0.005,-0.39944 1.5863,2.925 1.58629,2.925 0.35822,0.3705 0.35822,0.3705 v 0.312 0.312 z m -42.285077,-0.30295 -0.322423,-0.009 -0.831854,-0.67383 -0.831855,-0.67383 -0.467243,-0.9109 -0.467244,-0.9109 0.190989,-0.19099 0.190988,-0.19099 0.251454,0.79226 0.251454,0.79226 1.179079,0.99213 1.179078,0.99213 z M 134.55,173.16 h -0.52 l 0.26,-0.26 0.26,-0.26 0.26,0.26 0.26,0.26 z m 1.95,0 h -0.52 l 0.26,-0.26 0.26,-0.26 0.26,0.26 0.26,0.26 z m 1.365,-0.39 h -0.195 v -0.195 -0.195 h 0.195 0.195 v 0.195 0.195 z m 0.78,-0.39 h -0.195 v -0.195 -0.195 h 0.195 0.195 v 0.195 0.195 z m -7.02,-0.39 h -0.195 v -0.195 -0.195 h 0.195 0.195 v 0.195 0.195 z m 8.06911,-0.39 h -0.195 l 0.70589,-0.78 0.70589,-0.78 h 0.195 0.195 l -0.70589,0.78 -0.70589,0.78 z m -34.11518,-0.53893 -0.18257,0.18257 -0.24318,-0.63372 -0.24318,-0.63371 0.0119,-0.26061 0.0119,-0.2606 0.41389,0.71175 0.41389,0.71175 z M 129.675,170.04 h -0.195 v -0.195 -0.195 h 0.195 0.195 v 0.195 0.195 z m -24.895,-0.91 -0.26,0.26 v -0.52 -0.52 l 0.26,0.26 0.26,0.26 z m 73.645,0.13 h -0.195 v -0.195 -0.195 h 0.195 0.195 v 0.195 0.195 z m -49.89698,-0.78 h -0.17199 l -0.27827,-0.45026 -0.27828,-0.45026 0.45026,0.27828 0.45026,0.27827 v 0.17199 0.17198 z m -24.1372,-0.52082 -0.16714,0.16714 -0.26082,-1.03918 -0.26082,-1.03918 0.16714,-0.16714 0.16714,-0.16714 0.26082,1.03918 0.26082,1.03918 z M 178.815,168.09 h -0.195 v -0.195 -0.195 h 0.195 0.195 v 0.195 0.195 z m -35.53603,-0.39 h -0.195 l 0.24103,-0.39 0.24103,-0.39 h 0.195 0.195 l -0.24103,0.39 -0.24103,0.39 z M 126.945,166.53 h -0.195 v -0.195 -0.195 h 0.195 0.195 v 0.195 0.195 z m -23.33671,-1.4625 -0.19671,0.4875 v -0.975 -0.975 l 0.19671,0.4875 0.19671,0.4875 z m 22.18973,-0.0975 h -0.17199 l -0.27827,-0.45026 -0.27828,-0.45026 0.45026,0.27828 0.45026,0.27827 v 0.17199 0.17198 z m 20.21095,-0.39 h -0.195 l 0.24103,-0.39 0.24103,-0.39 h 0.195 0.195 l -0.24103,0.39 -0.24103,0.39 z M 135.135,163.8 h -0.195 v -0.195 -0.195 h 0.195 0.195 v 0.195 0.195 z m 0.73397,0 h -0.195 l 0.24103,-0.39 0.24103,-0.39 h 0.195 0.195 l -0.24103,0.39 -0.24103,0.39 z m -32.67335,-0.88563 -0.23562,0.23563 0.0308,-0.7475 0.0308,-0.7475 0.20483,0.51187 0.20484,0.51188 z M 124.215,163.02 h -0.195 v -0.195 -0.195 h 0.195 0.195 v 0.195 0.195 z m 9.75,-0.78 h -0.195 v -0.195 -0.195 h 0.195 0.195 v 0.195 0.195 z m -10.89698,-0.78 h -0.17199 l -0.27827,-0.45026 -0.27828,-0.45026 0.45026,0.27828 0.45026,0.27827 v 0.17199 0.17198 z m 25.66923,0 H 148.59 v -0.14725 -0.14724 l 0.6825,-0.53526 0.6825,-0.53525 -0.53525,0.6825 -0.53526,0.6825 z m -10.53,-0.39 H 138.06 v -0.14725 -0.14724 l 0.6825,-0.53526 0.6825,-0.53525 -0.53525,0.6825 -0.53526,0.6825 z m -5.80225,-0.78 h -0.195 v -0.195 -0.195 h 0.195 0.195 v 0.195 0.195 z m 47.97,0 h -0.195 v -0.195 -0.195 h 0.195 0.195 v 0.195 0.195 z m -58.89,-0.78 h -0.195 v -0.195 -0.195 h 0.195 0.195 v 0.195 0.195 z m 9.75,-0.78 h -0.195 v -0.195 -0.195 h 0.195 0.195 v 0.195 0.195 z m -10.53,-0.39 h -0.195 v -0.195 -0.195 h 0.195 0.195 v 0.195 0.195 z m 30.76225,0 H 151.32 v -0.14725 -0.14724 l 0.6825,-0.53526 0.6825,-0.53525 -0.53525,0.6825 -0.53526,0.6825 z m -31.08725,-0.91 -0.26,0.26 v -0.52 -0.52 l 0.26,0.26 0.26,0.26 z m 20.94897,0.13 h -0.195 l 0.24103,-0.39 0.24103,-0.39 h 0.195 0.195 l -0.24103,0.39 -0.24103,0.39 z M 129.675,156.78 h -0.195 v -0.195 -0.195 h 0.195 0.195 v 0.195 0.195 z m -9.36,-1.17 h -0.195 v -0.195 -0.195 h 0.195 0.195 v 0.195 0.195 z m 8.19,-0.39 h -0.195 v -0.195 -0.195 h 0.195 0.195 v 0.195 0.195 z m 26.08397,-0.39 h -0.195 l 0.24103,-0.39 0.24103,-0.39 h 0.195 0.195 l -0.24103,0.39 -0.24103,0.39 z m -51.75013,-0.8775 -0.17836,0.6825 v -1.365 -1.365 l 0.17836,0.6825 0.17835,0.6825 z M 120.705,154.44 h -0.195 v -0.195 -0.195 h 0.195 0.195 v 0.195 0.195 z m 23.35397,0 h -0.195 l 0.24103,-0.39 0.24103,-0.39 h 0.195 0.195 l -0.24103,0.39 -0.24103,0.39 z M 122.265,152.88 h -0.195 v -0.195 -0.195 h 0.195 0.195 v 0.195 0.195 z m 3.9,0 h -0.195 v -0.195 -0.195 h 0.195 0.195 v 0.195 0.195 z m -2.73,-0.39 h -0.195 v -0.195 -0.195 h 0.195 0.195 v 0.195 0.195 z m 1.755,0 h -0.52 l 0.26,-0.26 0.26,-0.26 0.26,0.26 0.26,0.26 z m 55.185,0 h -0.195 v -0.195 -0.195 h 0.195 0.195 v 0.195 0.195 z m -23.05775,-0.78 H 157.17 v -0.14725 -0.14724 l 0.6825,-0.53526 0.6825,-0.53525 -0.53525,0.6825 -0.53526,0.6825 z m -10.53,-0.39 H 146.64 v -0.14725 -0.14724 l 0.6825,-0.53526 0.6825,-0.53525 -0.53525,0.6825 -0.53526,0.6825 z m -43.56896,-0.6825 -0.19671,0.4875 v -0.975 -0.975 l 0.19671,0.4875 0.19671,0.4875 z m 0.36733,-2.15313 -0.23562,0.23563 0.0308,-0.7475 0.0308,-0.7475 0.20483,0.51187 0.20484,0.51188 z M 160.04725,148.59 H 159.9 v -0.14725 -0.14724 l 0.6825,-0.53526 0.6825,-0.53525 -0.53525,0.6825 -0.53526,0.6825 z m -10.53,-0.39 H 149.37 v -0.14725 -0.14724 l 0.6825,-0.53526 0.6825,-0.53525 -0.53525,0.6825 -0.53526,0.6825 z M 104,146.51 l -0.26,0.26 v -0.52 -0.52 l 0.26,0.26 0.26,0.26 z m 58.435,-0.65 h -0.195 v -0.195 -0.195 h 0.195 0.195 v 0.195 0.195 z M 104.36562,145.36437 104.13,145.6 l 0.0308,-0.7475 0.0308,-0.7475 0.20483,0.51187 0.20484,0.51188 z M 162.825,145.08 h -0.195 v -0.195 -0.195 h 0.195 0.195 v 0.195 0.195 z m -10.18603,-0.39 h -0.195 l 0.24103,-0.39 0.24103,-0.39 h 0.195 0.195 l -0.24103,0.39 -0.24103,0.39 z m 10.18603,-2.34 h -0.195 v -0.195 -0.195 h 0.195 0.195 v 0.195 0.195 z m -7.53089,-0.78 h -0.195 l 0.70589,-0.78 0.70589,-0.78 h 0.195 0.195 l -0.70589,0.78 -0.70589,0.78 z m 7.14089,0 h -0.195 v -0.195 -0.195 h 0.195 0.195 v 0.195 0.195 z m -1.17,-1.17 h -0.195 v -0.195 -0.195 h 0.195 0.195 v 0.195 0.195 z m -3.9,-0.39 h -0.195 v -0.195 -0.195 h 0.195 0.195 v 0.195 0.195 z m 3.12,0 h -0.195 v -0.195 -0.195 h 0.195 0.195 v 0.195 0.195 z m -52.70785,-3.16238 -0.2726,0.23738 0.91302,-1.56 0.91302,-1.56 1.36311,-1.755 1.36311,-1.755 1.77443,-1.8525 1.77444,-1.8525 h 0.3733 0.37331 l -2.44226,2.47438 -2.44226,2.47437 -1.70901,2.45575 -1.70901,2.45575 z M 174.135,134.94 h -0.195 v -0.195 -0.195 h 0.195 0.195 v 0.195 0.195 z m -8.19,-8.97 h -0.195 v -0.195 -0.195 h 0.195 0.195 v 0.195 0.195 z m -1.56,-1.17 h -0.195 v -0.195 -0.195 h 0.195 0.195 v 0.195 0.195 z m -2.34,-1.56 h -0.195 v -0.195 -0.195 h 0.195 0.195 v 0.195 0.195 z m -33.735,-3.51 h -0.52 l 0.26,-0.26 0.26,-0.26 0.26,0.26 0.26,0.26 z m 1.17,-0.44482 h -0.585 l 0.78,-0.33518 0.78,-0.33518 h 0.585 0.585 l -0.78,0.33518 -0.78,0.33518 z M 152.295,118.95 H 152.1 v -0.195 -0.195 h 0.195 0.195 v 0.195 0.195 z m -19.9225,-0.42079 -0.7475,-0.0308 0.51187,-0.20483 0.51188,-0.20484 0.23562,0.23563 0.23563,0.23562 z m 1.7875,-0.42079 h -0.975 l 0.4875,-0.19671 0.4875,-0.19671 0.4875,0.19671 0.4875,0.19671 z m 2.535,-0.40445 -1.17,-0.0144 0.68992,-0.17979 0.68992,-0.17978 0.48008,0.19423 0.48008,0.19424 z m 9.75,0 -1.17,-0.0144 0.68992,-0.17979 0.68992,-0.17978 0.48008,0.19423 0.48008,0.19424 z M 41.73,109.59 h -0.52 l 0.26,-0.26 0.26,-0.26 0.26,0.26 0.26,0.26 z m 34.32,0 h -0.52 l 0.26,-0.26 0.26,-0.26 0.26,0.26 0.26,0.26 z M 40.365,109.2 H 40.17 v -0.195 -0.195 h 0.195 0.195 v 0.195 0.195 z m 37.05,0 H 77.22 v -0.195 -0.195 h 0.195 0.195 v 0.195 0.195 z m -38.196983,-0.78 h -0.171984 l -0.278275,-0.45026 -0.278275,-0.45026 0.450259,0.27828 0.450258,0.27827 v 0.17199 0.17198 z m 39.366983,0 H 78.39 v -0.195 -0.195 h 0.195 0.195 v 0.195 0.195 z m 0.78,-1.17 H 79.17 v -0.195 -0.195 h 0.195 0.195 v 0.195 0.195 z m -41.275,-0.52 -0.26,0.26 v -0.52 -0.52 l 0.26,0.26 0.26,0.26 z m 41.665,-0.26 H 79.56 v -0.195 -0.195 h 0.195 0.195 v 0.195 0.195 z m -42.023002,-9.626116 -0.113361,8.261116 1.69e-4,-16.77 1.68e-4,-16.77 0.113193,8.508884 0.113192,8.508883 z M 38.09,70.46 37.83,70.72 V 70.2 69.68 l 0.26,0.26 0.26,0.26 z m 41.665,0.13 H 79.56 V 70.395 70.2 h 0.195 0.195 v 0.195 0.195 z m -0.39,-0.78 H 79.17 V 69.615 69.42 h 0.195 0.195 v 0.195 0.195 z M 38.757247,69.03 H 38.61 V 68.882753 68.735507 L 39.2925,68.200253 39.975,67.665 39.439747,68.3475 38.904493,69.03 Z M 78.585,68.64 H 78.39 V 68.445 68.25 h 0.195 0.195 v 0.195 0.195 z M 40.365,67.86 H 40.17 V 67.665 67.47 h 0.195 0.195 v 0.195 0.195 z m 37.05,0 H 77.22 V 67.665 67.47 h 0.195 0.195 v 0.195 0.195 z M 41.73,67.47 h -0.52 l 0.26,-0.26 0.26,-0.26 0.26,0.26 0.26,0.26 z m 34.32,0 h -0.52 l 0.26,-0.26 0.26,-0.26 0.26,0.26 0.26,0.26 z M 23.368044,10.673019 22.622916,11.895 22.621458,11.576861 22.62,11.258722 23.055646,10.406861 23.491291,9.555 24.323146,8.881172 25.155,8.207344 25.534277,8.198672 25.913555,8.19 25.013364,8.8205185 24.113172,9.451037 Z m 124.314166,0.894774 -0.19099,0.190988 -0.25146,-0.792262 -0.25145,-0.792261 L 145.80923,9.1821289 144.63015,8.19 l 0.32243,0.00867 0.32242,0.00867 0.83185,0.673828 0.83186,0.673828 0.46724,0.910902 0.46725,0.910902 z M 85.215,7.999961 25.935,7.9999452 55.703134,7.8975287 85.471269,7.7951122 114.98313,7.8975445 144.495,7.9999768 Z M 23.595,5.46 H 23.4 V 5.265 5.07 h 0.195 0.195 V 5.265 5.46 Z m 123.24,0 H 146.64 V 5.265 5.07 h 0.195 0.195 V 5.265 5.46 Z"
       id="path4" />
    <path
       style="fill:#5d95e9"
       d="m 141.57,191.74888 h -2.925 l 1.4625,-0.15298 1.4625,-0.15298 1.4625,0.15298 1.4625,0.15298 z m -4.875,-0.33491 -1.17,-0.0145 0.68992,-0.17979 0.68992,-0.17978 0.48008,0.19423 0.48008,0.19424 z m 9.75,0 -1.17,-0.0145 0.68992,-0.17979 0.68992,-0.17978 0.48008,0.19423 0.48008,0.19424 z m -12.1225,-0.34476 -0.7475,-0.0308 0.51187,-0.20483 0.51188,-0.20484 0.23562,0.23563 L 135.07,191.1 Z m 14.43,0 -0.7475,-0.0308 0.51187,-0.20483 0.51188,-0.20484 0.23562,0.23563 L 149.5,191.1 Z m -15.99,-0.39 -0.7475,-0.0308 0.51188,-0.20483 0.51187,-0.20484 0.23562,0.23562 0.23563,0.23563 z m 17.55,0 -0.7475,-0.0308 0.51187,-0.20483 0.51188,-0.20484 0.23562,0.23562 0.23563,0.23563 z m -18.8825,-0.39259 -0.585,0.0214 -0.585,-0.37806 -0.585,-0.37806 0.39,0.0214 0.39,0.0214 0.78,0.33518 0.78,0.33518 z m 20.865,-0.16311 -1.17,0.25267 3.12757,-1.30333 3.12758,-1.30333 1.80241,-1.05629 1.80241,-1.05628 2.81917,-2.2461 2.81916,-2.2461 2.4141,-3.01725 2.4141,-3.01725 1.44769,-2.89008 1.44769,-2.89008 0.74306,-2.09254 0.74307,-2.09255 0.0214,0.585 0.0214,0.585 -1.30199,3.16033 -1.30198,3.16032 -1.84463,2.85152 -1.84464,2.85151 -2.19371,2.29988 -2.19371,2.29988 -2.60494,1.93111 -2.60493,1.93112 -3.2601,1.52508 -3.2601,1.52508 z m -23.02737,-0.58382 -0.37263,-3.1e-4 -2.44761,-1.15791 -2.44762,-1.15791 -1.84238,-1.24465 -1.84239,-1.24465 -2.10751,-1.77355 -2.10752,-1.77356 -2.19262,-2.75919 -2.19263,-2.75919 -1.5989,-3.10688 -1.59891,-3.10689 -0.67319,-2.07277 -0.67319,-2.07276 0.165,-0.165 0.16501,-0.16501 0.7021,2.23777 0.70209,2.23777 1.17449,2.34 1.17448,2.34 1.19329,1.755 1.19329,1.755 2.36236,2.4832 2.36236,2.48321 2.33799,1.80679 2.33798,1.8068 3.29965,1.6575 3.29964,1.6575 z m 8.98737,-5.94804 -1.56,-0.008 0.88205,-0.16961 0.88204,-0.16961 0.67796,0.17748 0.67795,0.17748 z m 6.825,0.008 h -1.365 l 0.6825,-0.17836 0.6825,-0.17835 0.6825,0.17835 0.6825,0.17836 z m -9.165,-0.33553 -0.78,0.0196 -2.56406,-0.90518 -2.56406,-0.90519 -1.92614,-1.04834 -1.92614,-1.04833 -2.21425,-1.75656 -2.21424,-1.75657 -1.81798,-2.41845 -1.81798,-2.41845 -0.98661,-1.94697 -0.98661,-1.94698 -0.72846,-2.11732 -0.72847,-2.11732 0.008,-0.62144 0.008,-0.62145 1.0642,3.13764 1.06419,3.13764 1.365,2.2539 1.365,2.2539 1.88995,2.12298 1.88995,2.12298 2.45219,1.74984 2.45219,1.74985 1.89786,0.85027 1.89786,0.85027 2.34,0.68008 2.34,0.68008 z m 11.505,-0.0256 h -0.975 l 0.4875,-0.19671 0.4875,-0.19671 0.4875,0.19671 0.4875,0.19671 z m 2.145,-0.52625 -1.17,0.22469 2.34002,-0.90404 2.34003,-0.90403 2.301,-1.31651 2.30101,-1.3165 2.65879,-2.50817 2.65879,-2.50817 1.64639,-2.59722 1.64638,-2.59722 1.12636,-3.12 1.12635,-3.12 -0.21673,1.2746 -0.21673,1.27461 -1.18241,2.82039 -1.18242,2.8204 -1.91395,2.59168 -1.91394,2.59168 -2.46947,2.05538 -2.46947,2.05538 -3.12,1.47918 -3.12,1.47917 z m 26.56062,-17.8478 -0.23562,0.23563 0.0308,-0.7475 0.0308,-0.7475 0.20483,0.51187 0.20484,0.51188 z m -69.03,-0.39 -0.23562,0.23563 0.0308,-0.7475 0.0308,-0.7475 0.20483,0.51187 0.20484,0.51188 z m 69.4402,-1.34945 -0.19424,0.48008 0.0145,-1.17 0.0144,-1.17 0.17979,0.68992 0.17978,0.68992 z m -69.80753,-0.78742 -0.19671,0.4875 v -0.975 -0.975 l 0.19671,0.4875 0.19671,0.4875 z m 62.00753,-0.77258 -0.19424,0.48008 0.0144,-1.17 0.0145,-1.17 0.17979,0.68992 0.17978,0.68992 z m -54.21,-0.39 -0.19424,0.48008 0.0144,-1.17 0.0144,-1.17 0.17979,0.68992 0.17978,0.68992 z m 62.41214,-0.58787 -0.17748,0.67795 0.008,-1.56 0.008,-1.56 0.16961,0.88205 0.16961,0.88204 z m -70.57044,-2.14955 -0.14323,2.0475 v -4.095 -4.095 l 0.14323,2.0475 0.14324,2.0475 z m 62.78804,-0.39 -0.14929,1.6575 v -3.315 -3.315 l 0.14929,1.6575 0.14929,1.6575 z m -54.99689,-0.57802 -0.1618,1.06552 0.004,-2.34 0.004,-2.34 0.15782,1.27448 0.15781,1.27449 z m 62.78017,-3.90698 -0.17836,0.6825 v -1.365 -1.365 l 0.17836,0.6825 0.17835,0.6825 z m -62.41302,-0.96758 -0.19424,0.48008 0.0144,-1.17 0.0144,-1.17 0.17979,0.68992 0.17978,0.68992 z m 54.21,-0.39 -0.19424,0.48008 0.0144,-1.17 0.0145,-1.17 0.17979,0.68992 0.17978,0.68992 z m -62.00753,-1.17742 -0.19671,0.4875 v -0.975 -0.975 l 0.19671,0.4875 0.19671,0.4875 z m 69.81,-0.39 -0.19671,0.4875 v -0.975 -0.975 l 0.19671,0.4875 0.19671,0.4875 z m -60.79748,-3.02532 -1.0642,3.12282 -0.008,-0.62145 -0.008,-0.62144 0.76239,-2.21592 0.76239,-2.21592 1.28511,-2.42509 1.28511,-2.42508 2.66919,-2.81648 2.6692,-2.81649 2.18408,-1.44971 2.18408,-1.44971 2.75173,-1.06554 2.75172,-1.06555 1.56,-0.23858 1.56,-0.23859 -2.925,0.9034 -2.925,0.9034 -2.34686,1.2579 -2.34686,1.2579 -2.22363,1.74525 -2.22362,1.74524 -1.58781,2.00873 -1.5878,2.00873 -1.05671,1.79467 -1.05671,1.79468 z m 52.58481,2.43219 -0.23562,0.23563 0.0308,-0.7475 0.0308,-0.7475 0.20483,0.51187 0.20484,0.51188 z m -61.20733,-0.96687 -0.19671,0.4875 v -0.975 -0.975 l 0.19671,0.4875 0.19671,0.4875 z m 69.05528,-0.25107 -0.18065,0.18065 -0.24917,-1.24583 -0.24917,-1.24583 0.1606,-0.1606 0.16059,-0.16059 0.26923,1.22577 0.26923,1.22577 z m -8.22851,-0.48925 -0.18348,0.44782 -0.0308,-0.64286 -0.0308,-0.64285 -1.74116,-3.47814 -1.74116,-3.47814 -2.37202,-2.58864 -2.37203,-2.58865 -2.70402,-1.79763 -2.70403,-1.79763 -3.03029,-1.16009 -3.03029,-1.16009 1.08839,0.22128 1.08838,0.22127 2.08849,0.78141 2.08848,0.7814 2.44968,1.58331 2.44969,1.5833 1.99364,2.04202 1.99365,2.04202 1.48484,2.23701 1.48484,2.237 0.95673,2.35453 0.95674,2.35453 z m -59.60179,-3.64718 -1.12299,2.925 0.24053,-1.17 0.24052,-1.17 1.17087,-2.81582 1.17087,-2.81583 1.56825,-2.42639 1.56825,-2.42639 1.59675,-1.89365 1.59676,-1.89366 2.56223,-2.09624 2.56223,-2.09624 2.3974,-1.35509 2.3974,-1.35509 2.53785,-1.0153 2.53784,-1.0153 0.51849,0.0285 0.51848,0.0285 -1.95,0.69597 -1.95,0.69598 -2.73019,1.37643 -2.73019,1.37642 -2.33981,1.75898 -2.33981,1.75898 -2.16841,2.28262 -2.16842,2.28263 -1.57772,2.34 -1.57771,2.34 -0.70324,1.365 -0.70324,1.365 z m 67.09764,0.73971 -0.13591,0.3852 -1.0651,-2.60996 -1.06509,-2.60995 -1.46991,-2.535 -1.4699,-2.535 -3.705,-3.73777 -3.705,-3.73777 -3.05912,-1.88293 -3.05913,-1.88292 -3.76587,-1.29832 -3.76588,-1.29831 0.67127,-0.003 0.67127,-0.003 3.20631,1.17016 3.20631,1.17016 2.6573,1.57867 2.6573,1.57867 2.34767,1.95375 2.34766,1.95375 2.16679,2.60992 2.1668,2.60992 2.15157,4.36976 2.15158,4.36975 z M 147.03,129.41842 h -0.975 l 0.4875,-0.19671 0.4875,-0.19671 0.4875,0.19671 0.4875,0.19671 z m -5.46,-0.47271 h -4.095 l 2.0475,-0.14323 2.0475,-0.14324 2.0475,0.14324 2.0475,0.14323 z m -8.4175,-6.9065 -0.7475,-0.0308 0.51187,-0.20483 0.51188,-0.20484 0.23562,0.23563 L 133.9,122.07 Z m 1.7875,-0.42079 h -0.975 l 0.4875,-0.19671 0.4875,-0.19671 0.4875,0.19671 0.4875,0.19671 z m 13.4225,0.0308 -0.7475,-0.0308 0.51187,-0.20483 0.51188,-0.20484 0.23562,0.23563 0.23563,0.23562 z m -11.0825,-0.4497 h -1.365 l 0.6825,-0.17836 0.6825,-0.17835 0.6825,0.17835 0.6825,0.17836 z m 8.775,0.0144 -1.17,-0.0144 0.68992,-0.17979 0.68992,-0.17978 0.48008,0.19423 0.48008,0.19424 z m -4.29,-0.39 -1.17,-0.0144 0.68992,-0.17979 0.68992,-0.17978 0.48008,0.19423 0.48008,0.19424 z M 59.068951,104.82895 58.272902,104.9429 57.996451,104.66645 57.72,104.39 v -1.21911 -1.21911 L 56.011474,101.49481 54.302948,101.03785 53.033444,99.969637 51.76394,98.901419 51.23197,97.628236 50.7,96.355053 V 95.562526 94.77 h 0.353488 0.353489 l -0.192062,0.734444 -0.192061,0.734444 0.622134,1.203075 0.622134,1.203075 1.068939,0.999344 1.068939,0.999348 1.755,0.51417 1.755,0.51416 0.121042,1.42397 0.121043,1.42397 H 58.89 59.622915 l 0.121043,-1.42565 0.121042,-1.42565 1.479286,-0.50975 1.479285,-0.50974 1.119742,-0.797328 1.119742,-0.797326 0.813472,-1.680411 L 66.69,95.693735 V 93.958283 92.222831 L 65.962776,90.863915 65.235553,89.505 63.317947,88.500259 61.400341,87.495518 60.53517,87.26927 59.67,87.043023 v -4.108495 -4.108495 l 0.39349,-0.24319 0.39349,-0.24319 0.738876,0.23451 0.738876,0.23451 0.640932,1.350664 L 63.216595,81.51 H 64.807048 66.3975 L 66.150514,80.27507 65.903528,79.04014 64.970374,77.816711 64.03722,76.593283 62.53611,75.964706 61.035,75.336128 60.3525,75.120304 59.67,74.90448 V 73.52724 72.15 h -0.756458 -0.756457 l -0.121043,1.40664 -0.121042,1.40664 -1.95,0.725975 -1.95,0.725976 -1.254402,1.427211 -1.254403,1.42721 -0.361331,1.607674 L 50.783532,82.485 50.741766,81.535632 50.7,80.586265 l 0.827248,-1.708866 0.827248,-1.708866 1.415252,-0.913605 1.415252,-0.913605 1.245517,-0.256821 1.245517,-0.256821 0.119483,-1.43634 L 57.915,71.955 h 0.975 0.975 l 0.118385,1.417927 0.118385,1.417927 1.232629,0.246526 1.232629,0.246526 1.260704,0.863848 1.260704,0.863848 0.800782,1.424799 0.800782,1.4248 V 80.8806 81.9 l -1.8525,-0.0011 -1.8525,-0.0011 -0.78,-1.456844 -0.78,-1.456843 -0.6825,-0.130699 -0.6825,-0.1307 v 4.072912 4.072911 l 1.800429,0.504089 1.800428,0.504089 1.177602,0.990886 1.177601,0.990887 0.53197,1.273183 0.53197,1.273183 -0.0086,1.670027 -0.0086,1.670026 -0.715939,1.576134 -0.715938,1.576135 -1.243072,1.045976 -1.243073,1.045978 -1.5222,0.45606 -1.522201,0.45607 -0.117724,1.40682 L 59.865,104.715 Z M 57.162965,98.28 h -0.97258 L 55.395193,97.426461 54.6,96.572922 V 95.898961 95.225 l -0.4875,-0.196711 -0.4875,-0.19671 0.45538,-0.03079 0.455381,-0.03079 0.714619,1.4625 0.71462,1.4625 0.8775,0.124625 0.8775,0.124625 V 93.883857 89.823464 L 56.2575,89.377752 54.795,88.932039 53.523935,88.149584 52.252871,87.367129 51.477893,86.096065 50.702916,84.825 l 0.04031,-1.17 0.04031,-1.17 0.369448,1.648714 0.369447,1.648713 1.153164,1.153164 1.153163,1.153163 2.043123,0.76141 2.043123,0.76141 0.110273,4.334213 L 58.13555,98.28 Z m 3.241015,0 h -0.762225 l 0.111622,-3.8025 0.111623,-3.8025 0.825717,-0.117839 0.825718,-0.117839 1.026782,1.220262 1.026783,1.220262 v 1.354444 1.354445 l -0.570576,1.103372 -0.570576,1.103372 -0.631321,0.24226 L 61.166206,98.28 Z m 0.407714,-0.39 h 0.751693 L 62.371694,96.862405 63.18,95.83481 V 94.309678 92.784545 L 62.222727,91.827273 61.265455,90.87 H 60.662727 60.06 v 3.51 3.51 z M 57.231323,86.116805 56.547646,86.247646 55.378823,85.078823 54.21,83.91 V 82.177595 80.44519 l 0.808306,-1.027595 0.808307,-1.027595 0.654193,0.02639 0.654194,0.0264 -0.833008,0.403349 -0.833008,0.403349 -0.434492,0.953606 L 54.6,81.156701 v 1.365272 1.365271 l 1.042676,0.966319 1.042676,0.96632 0.419824,-0.141088 0.419824,-0.141089 v -3.574418 -3.574419 l 0.306623,5.66e-4 0.306622,5.65e-4 -0.111622,3.797982 -0.111623,3.797982 z"
       id="path3" />
    <path
       style="fill:#7374ef"
       d="m 142.545,194.84343 -6.24,0.13885 -2.49094,-0.56255 -2.49094,-0.56254 -1.99406,-0.64392 -1.99406,-0.64391 -3.00187,-1.48175 -3.00188,-1.48176 -1.8429,-1.26795 -1.84291,-1.26795 -2.80552,-2.66497 -2.80553,-2.66498 H 68.481659 24.928926 L 23.481963,180.99795 22.035,180.25591 21.176114,179.33513 20.317228,178.41436 19.713614,176.9697 19.11,175.52505 V 93.21 10.894947 L 19.713614,9.4502962 20.317228,8.0056449 21.176114,7.0848684 22.035,6.164092 23.481963,5.422046 24.928926,4.68 H 85.215 145.50107 l 1.44697,0.742046 1.44696,0.742046 0.85889,0.9207764 0.85888,0.9207765 0.60362,1.4446513 0.60361,1.4446508 v 53.817495 53.817498 l 1.6575,0.4396 1.6575,0.4396 3.19469,1.48944 3.19469,1.48944 2.26531,1.4978 2.26531,1.4978 2.9844,2.84353 2.98439,2.84353 1.93822,2.81216 1.93822,2.81216 1.17406,2.34 1.17406,2.34 0.98875,3.13608 0.98874,3.13609 0.42208,3.03463 0.42208,3.03464 v 2.47856 2.47856 l -0.42208,3.03464 -0.42208,3.03463 -0.98924,3.13609 -0.98924,3.13608 -1.47102,2.925 -1.47102,2.925 -1.72951,2.34 -1.72952,2.34 -2.50565,2.48107 -2.50564,2.48107 -3.47392,2.29177 -3.47391,2.29176 -3.05942,1.17984 -3.05942,1.17984 -2.24166,0.62711 -2.24167,0.62712 z m 0.39,-3.18802 3.9,-0.16096 3.27346,-0.78969 3.27347,-0.78969 3.30164,-1.5472 3.30163,-1.5472 2.65418,-1.96763 2.65418,-1.96762 2.31685,-2.47672 2.31685,-2.47672 1.78724,-2.87349 1.78724,-2.87349 1.16516,-2.925 1.16515,-2.925 0.66325,-3.28637 0.66325,-3.28637 -0.21032,-4.90363 -0.21032,-4.90363 -0.65861,-2.535 -0.65861,-2.535 -1.85138,-3.9 -1.85138,-3.9 -1.8256,-2.409 -1.82559,-2.409 -2.23087,-2.04762 -2.23087,-2.04763 -2.925,-1.88592 -2.925,-1.88592 -3.02542,-1.17093 -3.02542,-1.17093 -2.82458,-0.61228 -2.82458,-0.61227 -4.68,0.0105 -4.68,0.0105 -3.7586,0.96418 -3.7586,0.96419 -3.3973,1.6911 -3.39729,1.6911 -3.03825,2.43027 -3.03825,2.43027 -1.89586,2.34093 -1.89585,2.34094 -1.45951,2.41204 -1.4595,2.41204 -1.16912,3.03163 -1.16912,3.03162 -0.63306,3.63013 -0.63306,3.63013 0.20829,4.095 0.20829,4.095 0.80703,3.12 0.80704,3.12 1.77029,3.59633 1.77029,3.59634 2.32241,2.9225 2.32241,2.92251 2.50578,2.06116 2.50579,2.06116 2.15511,1.29979 2.15511,1.2998 2.7002,1.09885 2.70021,1.09886 2.88256,0.6144 2.88256,0.61441 1.17,0.17263 1.17,0.17262 z m 0,-8.17831 -3.12,0.16778 -2.24006,-0.35311 -2.24006,-0.35311 -2.76544,-0.96172 -2.76543,-0.96173 -2.19951,-1.2951 -2.19951,-1.29511 -2.935,-2.92784 -2.93499,-2.92784 -1.47248,-2.53216 -1.47248,-2.53216 -1.03794,-3.12 -1.03794,-3.12 v -5.07 -5.07 l 1.0341,-3.12 1.03409,-3.12 1.40173,-2.32778 1.40172,-2.32778 1.40217,-1.71117 1.40217,-1.71116 2.18243,-1.71491 2.18243,-1.7149 2.55258,-1.34292 2.55257,-1.34291 3.07844,-0.84456 3.07844,-0.84456 4.89898,0.1783 4.89899,0.17829 3.22653,1.20658 3.22653,1.20658 2.70279,1.79681 2.70278,1.79681 2.38225,2.59981 2.38225,2.5998 1.73989,3.52483 1.7399,3.52484 0.61436,2.925 0.61437,2.925 -0.18614,4.095 -0.18614,4.095 -1.0479,3.12 -1.0479,3.12 -1.73812,2.79723 -1.73813,2.79723 -2.88751,2.69661 -2.8875,2.69662 -3.24616,1.62284 -3.24615,1.62285 -2.34,0.59046 -2.34,0.59047 z m -7.37384,-10.32567 1.20616,0.009 1.61713,-0.8775 1.61713,-0.8775 10.64528,-12.11679 10.64528,-12.11678 0.86393,-1.09831 0.86393,-1.09831 V 143.43741 141.9 l -1.14,-1.14 -1.14,-1.14 h -1.76325 -1.76325 l -0.95226,0.8775 -0.95226,0.8775 -9.82475,11.2125 -9.82475,11.2125 h -0.14714 -0.14713 l -3.94425,-5.06265 -3.94424,-5.06265 -1.04586,-0.82448 -1.04586,-0.82449 -1.52201,0.20301 -1.522,0.203 -0.94463,0.94462 -0.94462,0.94463 -0.20829,1.55293 -0.20829,1.55293 2.64627,3.47907 2.64627,3.47908 2.89106,3.6422 2.89106,3.6422 1.62259,0.73673 1.62259,0.73674 z m -67.60366,5.45969 41.6325,0.009 v -0.18914 -0.18914 l -1.16927,-1.90031 -1.16927,-1.9003 -1.1266,-2.49306 -1.1266,-2.49305 -0.61957,-2.34 -0.61958,-2.34 -0.64778,-2.71493 -0.64778,-2.71493 0.24779,-3.78095 0.24778,-3.78095 0.61968,-3.05912 0.61969,-3.05912 0.33844,-1.62788 0.33844,-1.62788 1.1877,-2.6194 1.18769,-2.61941 0.51905,-0.43271 0.51905,-0.43272 1.78683,-2.535 1.78684,-2.535 3.64686,-3.705 3.64687,-3.705 3.58763,-1.87155 3.58762,-1.87155 4.59675,-1.21212 4.59674,-1.21212 6.1425,-0.0363 6.1425,-0.0363 V 64.428133 11.271265 L 147.24218,10.173222 146.67436,9.0751791 145.33074,8.4375895 143.98712,7.8 H 85.215 26.442881 L 25.099261,8.4375895 23.75564,9.0751791 23.18782,10.173222 22.62,11.271265 V 93.21 175.14873 l 0.564755,1.09212 0.564755,1.09212 1.287745,0.63463 1.287745,0.63464 z M 58.89,109.53281 42.315,109.51965 41.12351,109.17337 39.932021,108.82709 38.97851,107.81213 38.025,106.79716 V 88.335 69.87284 l 0.94604,-1.007013 0.946039,-1.007013 1.393961,-0.387232 1.39396,-0.387232 16.38,0.01984 16.38,0.01984 1.351495,0.465487 L 78.16799,68.055 79.058995,69.380174 79.95,70.705349 V 88.335 105.96465 l -0.891005,1.32518 -0.891005,1.32517 -1.351495,0.46549 -1.351495,0.46549 z m 0.178951,-4.70386 0.796049,-0.11395 0.117723,-1.40683 0.117724,-1.40682 1.522201,-0.45607 1.5222,-0.45606 1.243073,-1.045975 1.243072,-1.045976 0.715938,-1.576135 L 67.06287,95.745 67.071435,94.074974 67.08,92.404947 66.54803,91.131764 66.01606,89.858581 64.838459,88.867694 63.660857,87.876808 61.860429,87.372719 60.06,86.86863 v -4.072911 -4.072912 l 0.6825,0.1307 0.6825,0.130699 0.78,1.456843 0.78,1.456844 1.8525,0.0011 L 66.69,81.9 V 80.8806 79.861201 L 65.889218,78.436401 65.088436,77.011602 63.827732,76.147754 62.567028,75.283906 61.334399,75.03738 60.10177,74.790854 59.983385,73.372927 59.865,71.955 H 58.89 57.915 l -0.119483,1.436341 -0.119483,1.43634 -1.245517,0.256821 -1.245517,0.256821 -1.415252,0.913605 -1.415252,0.913605 -0.827248,1.708866 -0.827248,1.708866 0.0015,2.119367 0.0015,2.119368 0.774977,1.271065 0.774978,1.271064 1.271064,0.782455 1.271065,0.782455 1.4625,0.445713 1.4625,0.445712 v 4.060393 4.060393 L 56.8425,97.819625 55.965,97.695 55.25038,96.2325 54.535761,94.77 H 52.61788 50.7 v 0.792526 0.792527 l 0.53197,1.273183 0.53197,1.273183 1.269504,1.068218 1.269504,1.068213 1.708526,0.45696 1.708526,0.45697 v 1.21911 1.21911 l 0.276451,0.27645 0.276451,0.27645 z M 60.811694,97.89 H 60.06 v -3.51 -3.51 h 0.602727 0.602728 l 0.957272,0.957273 0.957273,0.957272 v 1.525133 1.525132 L 62.371694,96.862405 61.563387,97.89 Z M 57.105176,85.681142 56.685352,85.819883 55.642676,84.853563 54.6,83.887244 v -1.365271 -1.365272 l 0.433006,-0.950344 0.433006,-0.950345 0.945143,-0.430636 0.945144,-0.430636 0.19939,0.519602 0.19939,0.519603 -0.115039,3.054228 -0.11504,3.054229 z"
       id="path2" />
    <path
       style="fill:#00dddd"
       d="m 142.74,191.302 -4.875,0.14875 -1.82097,-0.33353 -1.82096,-0.33354 -2.26735,-0.65914 -2.26736,-0.65913 -2.42701,-1.10046 -2.42701,-1.10046 -2.25905,-1.49475 -2.25904,-1.49474 -2.87678,-2.7283 -2.87678,-2.7283 -1.66036,-2.3417 -1.66036,-2.3417 -1.17016,-2.34 -1.17016,-2.34 -1.06944,-3.315 -1.06944,-3.315 -0.19411,-5.07467 -0.19411,-5.07467 0.61973,-2.99672 0.61973,-2.99672 1.22666,-3.18084 1.22666,-3.18083 2.27817,-3.4059 2.27817,-3.4059 2.7018,-2.54874 2.70179,-2.54873 1.7977,-1.23685 1.7977,-1.23685 3.22117,-1.53983 3.22117,-1.53983 3.12,-0.79699 3.12,-0.797 3.51,-0.23079 3.51,-0.23079 2.90028,0.45365 2.90027,0.45366 3.6297,1.20358 3.6297,1.20359 3.17907,1.95642 3.17908,1.95642 2.91711,2.77096 2.9171,2.77097 1.71455,2.40273 1.71455,2.40272 1.54735,3.30195 1.54734,3.30195 0.75495,3.26702 0.75496,3.26703 0.26034,2.41638 0.26033,2.41639 -0.47018,3.62861 -0.47018,3.62862 -0.77379,2.535 -0.77379,2.535 -1.57049,3.18695 -1.57049,3.18695 -2.37412,2.99429 -2.37412,2.9943 -3.13476,2.52344 -3.13476,2.52344 -3.51,1.70857 -3.51,1.70857 -2.925,0.82587 -2.925,0.82587 z m -1.32989,-7.64449 4.32512,0.0325 2.94279,-0.75264 2.94279,-0.75264 2.73824,-1.37895 2.73824,-1.37896 2.40832,-2.00423 2.40833,-2.00422 1.91394,-2.59168 1.91395,-2.59168 1.20395,-2.87213 1.20395,-2.87213 0.60255,-3.17287 0.60255,-3.17287 -0.21221,-3.33713 -0.2122,-3.33713 -0.64681,-2.51287 -0.64682,-2.51287 -1.14068,-2.40055 -1.14069,-2.40056 -2.13399,-2.72733 -2.13399,-2.72734 -2.44048,-1.83454 -2.44048,-1.83453 -1.77057,-0.89722 -1.77058,-0.89723 -2.91517,-0.91535 -2.91516,-0.91535 -5.46,0.0159 -5.46,0.0159 -3.12,1.08534 -3.12,1.08533 -2.145,1.20992 -2.145,1.20991 -3.3539,3.3439 -3.35389,3.34389 -1.61661,3.315 -1.61662,3.315 -0.65643,2.535 -0.65643,2.535 v 4.29 4.29 l 0.66488,2.535 0.66488,2.535 1.29838,2.73 1.29838,2.73 1.83423,2.42419 1.83424,2.42419 2.21944,1.78554 2.21945,1.78553 3.12266,1.53028 3.12267,1.53027 2.33733,0.56501 2.33734,0.56501 z M 58.89,104.52 H 58.157085 L 58.036042,103.09603 57.915,101.67206 56.150801,101.15998 54.386602,100.64789 53.175604,99.463917 51.964606,98.279942 51.482889,97.116976 51.001173,95.954009 51.228346,95.362005 51.45552,94.77 h 0.955343 0.955343 L 53.983103,95.006726 54.6,95.243451 v 0.664736 0.664735 l 0.795193,0.853539 0.795192,0.853539 h 0.97258 0.972581 L 58.025273,93.945787 57.915,89.611574 l -2.043123,-0.76141 -2.043123,-0.76141 -1.153163,-1.153163 -1.153164,-1.153164 -0.33689,-1.648713 -0.33689,-1.648714 0.334439,-1.56 0.334439,-1.56 L 52.607908,78 53.698292,76.635 55.806646,75.785981 57.915,74.936962 58.036042,73.543481 58.157085,72.15 H 58.913542 59.67 v 1.37724 1.37724 l 0.6825,0.215824 0.6825,0.215824 1.50111,0.628578 1.50111,0.628577 0.933154,1.223428 0.933154,1.223429 0.246986,1.23493 L 66.3975,81.51 h -1.590452 -1.590453 l -0.640931,-1.350663 -0.640932,-1.350664 -0.738876,-0.23451 -0.738876,-0.23451 -0.39349,0.24319 -0.39349,0.24319 v 4.108495 4.108495 l 0.86517,0.226247 0.865171,0.226248 1.917606,1.004741 1.917606,1.004741 0.727223,1.358915 0.727224,1.358916 v 1.735452 1.735452 l -0.813473,1.68041 -0.813472,1.680411 -1.119742,0.797326 -1.119742,0.797328 -1.479285,0.50974 -1.479286,0.50975 -0.121042,1.42565 -0.121043,1.42565 z m 1.51398,-6.24 h 0.762226 l 0.631321,-0.242261 0.631321,-0.24226 0.570576,-1.103372 L 63.57,95.588735 V 94.23429 92.879846 L 62.543217,91.659584 61.516435,90.439322 60.690717,90.557161 59.865,90.675 59.753377,94.4775 59.641755,98.28 Z M 57.231323,86.116805 57.915,85.985964 58.026623,82.187982 58.138245,78.39 H 56.982429 55.826613 L 55.018306,79.417595 54.21,80.44519 V 82.177595 83.91 l 1.168823,1.168823 1.168823,1.168823 z"
       id="path1" />
</svg>
