<!--?xml version="1.0" standalone="no"?-->
              <svg id="sw-js-blob-svg" viewBox="0 0 100 100" xmlns="http://www.w3.org/2000/svg" version="1.1">
                    <defs> 
                        <linearGradient id="sw-gradient" x1="0" x2="1" y1="1" y2="0">
                            <stop id="stop1" stop-color="rgba(11.404, 224.406, 84.048, 1)" offset="0%"></stop>
                            <stop id="stop2" stop-color="rgba(118.311, 162.429, 199.361, 1)" offset="100%"></stop>
                        </linearGradient>
                    </defs>
                <path fill="url(#sw-gradient)" d="M15.9,-20.3C22,-20.7,29.4,-18.8,34,-13.9C38.7,-9.1,40.7,-1.5,38.2,4.4C35.6,10.3,28.6,14.5,22.9,18.3C17.2,22.1,12.9,25.6,7.7,28C2.4,30.4,-3.7,31.8,-6.5,28.2C-9.4,24.6,-9.1,16.1,-11,11.1C-12.9,6.1,-17.2,4.6,-20.8,1C-24.4,-2.6,-27.3,-8.2,-28.2,-15.5C-29,-22.9,-27.6,-31.9,-22.6,-32C-17.5,-32.1,-8.8,-23.2,-2,-20.2C4.9,-17.1,9.7,-19.9,15.9,-20.3Z" width="100%" height="100%" transform="translate(50 50)" stroke-width="0" style="transition: all 0.3s ease 0s;" stroke="url(#sw-gradient)"></path>
              </svg>