<svg xmlns="http://www.w3.org/2000/svg" xmlns:xlink="http://www.w3.org/1999/xlink" viewBox="0 0 335.18 365.33"><defs><style>.a{fill:url(#a);}.b{fill:url(#b);}.c{fill:url(#c);}.d{fill:url(#d);}.e{fill:url(#e);}.f{fill:url(#f);}</style><linearGradient id="a" x1="31.75" y1="26.3" x2="87.83" y2="308.77" gradientUnits="userSpaceOnUse"><stop offset="0" stop-color="#2666b0"/><stop offset="1" stop-color="#009487"/></linearGradient><linearGradient id="b" x1="164.97" y1="-0.15" x2="221.05" y2="282.32" xlink:href="#a"/><linearGradient id="c" x1="139.84" y1="4.84" x2="195.92" y2="287.31" xlink:href="#a"/><linearGradient id="d" x1="161.26" y1="0.59" x2="217.34" y2="283.06" xlink:href="#a"/><linearGradient id="e" x1="87.48" y1="-23.33" x2="153.83" y2="310.84" xlink:href="#a"/><linearGradient id="f" x1="166.49" y1="-39.02" x2="232.84" y2="295.15" xlink:href="#a"/></defs><path class="a" d="M135.25,352.33c-2.17,1.47-3.86.85-5.49.53-34.22-6.84-64.14-21.75-88-47.58-13-14-22.62-30.28-30-48C2.12,234.21-1.18,210.24.36,185.52c.84-13.42,4.35-26.41,8.72-39.05,6.19-17.91,14.79-34.59,27.12-49.2C51.23,79.46,69.61,66.73,92,59.84a81.91,81.91,0,0,1,13.79-3.39h0a1,1,0,0,1,.88,1.53c-.83,1.22-2.26,1.71-3.38,2.43C66.93,83.82,43,116.28,32.83,158.35c-5.52,23-5.07,46,.74,69.13,5.44,21.66,12.72,42.33,25,61.13a173.66,173.66,0,0,0,61.15,57.13C124.43,348.39,129.71,350,135.25,352.33Z"/><path class="b" d="M100.81,350.52c3.39.81,6.42,1.5,9.42,2.27,10.18,2.63,20.45,4.65,31,4.86,16.12.31,32.2.25,48.05-3.42,20.32-4.7,38.68-13.54,55.65-25.59a162.48,162.48,0,0,0,41.45-42.82,167.07,167.07,0,0,0,22.37-49.71,159.84,159.84,0,0,0-1.14-87.67c-5.07-17.56-12.5-34-23.32-48.78a35.58,35.58,0,0,1-2.86-5.31c-.43-.85-1.25-1.91-.21-2.73s1.85.24,2.64.79A106.54,106.54,0,0,1,306.7,114a130,130,0,0,1,28,72.06c2.94,39-6.82,74.6-28.86,106.88-20,29.34-46.95,50-80.05,62.29A164.26,164.26,0,0,1,157.13,365a175.62,175.62,0,0,1-52.81-11.51C103.05,353,101.49,352.87,100.81,350.52Z"/><path class="c" d="M59.39,280.4c50.73,52.38,108.7,65.38,175.3,33.38,59.23-35.66,79.63-88.78,69.61-155.89,1,1.62,3,9.26,3.37,11.48a157.45,157.45,0,0,1-.94,53.22,163,163,0,0,1-22.24,57.12,157,157,0,0,1-42.68,45.13c-16.87,12-35.55,19.58-55.89,23.69A104.16,104.16,0,0,1,151.67,350,95.27,95.27,0,0,1,107,332.09,178.22,178.22,0,0,1,61.6,284.68C60.76,283.38,59.59,282.22,59.39,280.4Z"/><path class="d" d="M122.11,63.11c-.32-1.65.65-2.52,1.25-3.51,2-3.38,1.31-5.89-2.17-8-4.3-2.67-8.52-5.49-12.82-8.17-1.63-1-1.75-1.84-.05-2.84,2.12-1.25,4.2-2.06,6.84-1.33,5.35,1.48,10.79,2.64,16.19,3.94,3.52.84,6.91.77,10.16-1.12,6.9-4,13.85-7.88,20.77-11.84.8-.46,2-.75,1.91-1.92s-1.41-1.13-2.29-1.35c-4.11-1-8.22-1.93-12.34-2.88-1-.23-2.14-.44-2-1.66s1.42-1.06,2.36-.95c7.95.87,15.93.17,23.89.42a11.52,11.52,0,0,0,6.5-1.88c9.11-5.47,18.22-11,27.42-16.27,3.87-2.25,8-4.07,12.68-3.65,1.33.12,2.79.11,3.38,1.59s-.23,2.55-1.08,3.62c-2.94,3.69-7.21,5.63-11,8.22-5.66,3.9-11.52,7.53-17.32,11.23A12,12,0,0,0,190,29.4c-4.57,8.91-9.24,17.79-13.76,26.73-1.44,2.84-3.29,5-6.49,5.81-.74.18-1.49.24-1.92-.51s0-1.43.7-1.75c1.42-.64,1.72-1.93,2.06-3.22,1.33-5,2.67-10,3.94-15.05.24-1,1-2.22-.18-3s-2.13.07-3.06.56c-5.44,2.88-28.05,13.13-34.11,14.47-5,1.1-8.44,3.81-11.8,7.15C124.5,61.5,123.8,62.71,122.11,63.11Z"/><path class="e" d="M128.35,262A105.9,105.9,0,0,1,109,260.89,59.31,59.31,0,0,1,80.57,248c-6.48-5.38-10.15-12.26-9.79-20.89.17-4.13,1.25-8,4.48-10.87a4.3,4.3,0,0,1,1.75-1c1-.28,1.64.23,1.53,1.31a5,5,0,0,1-.32,1.21c-2.67,6.83-.92,12.83,3.49,18.29a32,32,0,0,0,16.36,10.47c.84.25,1.22.32,1-.84a91.21,91.21,0,0,1-1.24-14.3,40.34,40.34,0,0,1,7-22.08c4-6.15,9.34-11,15.07-15.43,9.39-7.26,18.6-14.73,27.38-22.72a27.35,27.35,0,0,0,7.5-11.14,11.7,11.7,0,0,0-1.17-10c-.84-1.51-2-1.85-3.66-1.57-4.46.76-9,1.56-13.47.57-3.49-.77-6.22-2.67-7.42-6.35-.56-1.73-1.94-3.08-2.57-4.82-.15-.42-.38-.82-.54-1.25a2.8,2.8,0,0,1,1.43-3.92,35.34,35.34,0,0,1,4.6-2,24.88,24.88,0,0,0,8.47-4.82,25.05,25.05,0,0,0,3.14-3.76,12.79,12.79,0,0,1,6.79-4.75,35.55,35.55,0,0,1,9.26-1.84,22.82,22.82,0,0,1,18.64,7.71c4.33,4.78,6.52,10.65,8.25,16.72,1.07,3.73,1.9,7.52,2.78,11.3a1.18,1.18,0,0,1-.46,1.47c-6.52,4.45-9.89,11-11.89,18.35a51.36,51.36,0,0,0-1.66,9.3c-.24,3-1.41,5.75-2,8.66a42.48,42.48,0,0,0,2,23.33c.93,2.5.94,2.49-1.24,4.06-.64.47-1.28,1-1.91,1.44a4.79,4.79,0,0,0-1.8,3.54c-.56,5.79-1.07,11.58-1.33,17.39a33.79,33.79,0,0,0,1.37,10.35c.27,1,1.14,1.5,1.94,2a16.88,16.88,0,0,0,2,1,6.49,6.49,0,0,1,2.7,2.22c1.45,2.13.8,4.35-1.67,5a20.05,20.05,0,0,1-10.59.38c-3.53-.91-5.37-3.65-6.42-7a31.26,31.26,0,0,1-1.08-9.37,32.2,32.2,0,0,0-2.06-10.92c-.32-.89-.61-1.07-1.4-.43-2.37,1.92-4.77,3.78-7.18,5.64a3.76,3.76,0,0,0-1.35,2.18,29,29,0,0,1-3.59,8.59,2.91,2.91,0,0,0,2.41,4.53,22.13,22.13,0,0,1,4.51.67c1.85.48,3,1.58,3,3a3.65,3.65,0,0,1-2.61,3.84,22.53,22.53,0,0,1-7.5,1.25c-2.2.12-4.41.17-6.61.2S130.56,262,128.35,262Z"/><path class="f" d="M241,245.58a21.49,21.49,0,0,0,6.16-4.76,29.56,29.56,0,0,0,7.66-21.35,62.06,62.06,0,0,0-.9-8.61,10,10,0,0,1-.12-1.82,2.68,2.68,0,0,1,1.93-2.88,3.17,3.17,0,0,1,3.67,1.11,14.74,14.74,0,0,1,1.87,3.77,38.38,38.38,0,0,1,.26,25.41,37.07,37.07,0,0,1-11.15,17.06,34.13,34.13,0,0,1-18.53,7.83,44.2,44.2,0,0,1-9.55.26,28.17,28.17,0,0,0-3.3.17c-4,.17-7.88-.49-11.81-.93a49.74,49.74,0,0,0-13.51.62,28.66,28.66,0,0,1-5,.56,6.36,6.36,0,0,1-4.46-1.38,4.62,4.62,0,0,0-1.9-.75,3.21,3.21,0,0,1-2.6-2.95,3.16,3.16,0,0,1,1.86-3.13c.88-.53,1.78-1,2.67-1.54a3.46,3.46,0,0,0,1.78-3.19c.19-6-1.05-11.71-2.67-17.4A31.77,31.77,0,0,1,182.1,225a9,9,0,0,0-1.25-3.41,70.66,70.66,0,0,1-5.54-13.48,38.33,38.33,0,0,1-.14-20.84c1.12-3.87,1.41-7.85,2.15-11.76a40.69,40.69,0,0,1,5.76-15.14,24.22,24.22,0,0,1,6.48-6.52,11.07,11.07,0,0,0,3-3.32,35.54,35.54,0,0,1,4.73-6.13,7.06,7.06,0,0,1,.76-.69c1-.74,1.61-.56,2.07.63.18.45.31.92.49,1.49.82-.62,1.11-1.57,1.71-2.25s1-1.85,2.13-1.63,1,1.41,1.25,2.23c.74,2.52,1.13,5.12,1.62,7.7a3.15,3.15,0,0,0,1.59,2.31,12.66,12.66,0,0,1,6.17,7.86,8.39,8.39,0,0,0,3,4.1c1.49,1.3,1.62,1.83.59,3.49a2.12,2.12,0,0,0-.35,1.06,9.07,9.07,0,0,1-4.53,7.26c-1.55,1-3.14,2-4.65,3.09-1.34,1-1.38,1.62-.22,2.85,1.7,1.82,3.91,2.9,6,4.13,4.22,2.48,8.32,5.12,11.44,8.95,5,6.14,9.88,12.38,12.33,20.1a61.8,61.8,0,0,1,2.66,14.2,75.43,75.43,0,0,1-.43,13.77A4.1,4.1,0,0,0,241,245.58Zm-38.63,4h1.54c.52,0,.75-.13.63-.74-.51-2.74-.64-2.88-3.31-3.29l-.56-.11c-1.65-.35-1.71-.35-1.52,1.31C199.5,250.11,198.93,249.47,202.34,249.59Z"/><path class="a" d="M135.25,352.33c-2.17,1.47-3.86.85-5.49.53-34.22-6.84-64.14-21.75-88-47.58-13-14-22.62-30.28-30-48C2.12,234.21-1.18,210.24.36,185.52c.84-13.42,4.35-26.41,8.72-39.05,6.19-17.91,14.79-34.59,27.12-49.2C51.23,79.46,69.61,66.73,92,59.84a81.91,81.91,0,0,1,13.79-3.39h0a1,1,0,0,1,.88,1.53c-.83,1.22-2.26,1.71-3.38,2.43C66.93,83.82,43,116.28,32.83,158.35c-5.52,23-5.07,46,.74,69.13,5.44,21.66,12.72,42.33,25,61.13a173.66,173.66,0,0,0,61.15,57.13C124.43,348.39,129.71,350,135.25,352.33Z"/><path class="b" d="M100.81,350.52c3.39.81,6.42,1.5,9.42,2.27,10.18,2.63,20.45,4.65,31,4.86,16.12.31,32.2.25,48.05-3.42,20.32-4.7,38.68-13.54,55.65-25.59a162.48,162.48,0,0,0,41.45-42.82,167.07,167.07,0,0,0,22.37-49.71,159.84,159.84,0,0,0-1.14-87.67c-5.07-17.56-12.5-34-23.32-48.78a35.58,35.58,0,0,1-2.86-5.31c-.43-.85-1.25-1.91-.21-2.73s1.85.24,2.64.79A106.54,106.54,0,0,1,306.7,114a130,130,0,0,1,28,72.06c2.94,39-6.82,74.6-28.86,106.88-20,29.34-46.95,50-80.05,62.29A164.26,164.26,0,0,1,157.13,365a175.62,175.62,0,0,1-52.81-11.51C103.05,353,101.49,352.87,100.81,350.52Z"/><path class="c" d="M59.39,280.4c50.73,52.38,108.7,65.38,175.3,33.38,59.23-35.66,79.63-88.78,69.61-155.89,1,1.62,3,9.26,3.37,11.48a157.45,157.45,0,0,1-.94,53.22,163,163,0,0,1-22.24,57.12,157,157,0,0,1-42.68,45.13c-16.87,12-35.55,19.58-55.89,23.69A104.16,104.16,0,0,1,151.67,350,95.27,95.27,0,0,1,107,332.09,178.22,178.22,0,0,1,61.6,284.68C60.76,283.38,59.59,282.22,59.39,280.4Z"/><path class="d" d="M122.11,63.11c-.32-1.65.65-2.52,1.25-3.51,2-3.38,1.31-5.89-2.17-8-4.3-2.67-8.52-5.49-12.82-8.17-1.63-1-1.75-1.84-.05-2.84,2.12-1.25,4.2-2.06,6.84-1.33,5.35,1.48,10.79,2.64,16.19,3.94,3.52.84,6.91.77,10.16-1.12,6.9-4,13.85-7.88,20.77-11.84.8-.46,2-.75,1.91-1.92s-1.41-1.13-2.29-1.35c-4.11-1-8.22-1.93-12.34-2.88-1-.23-2.14-.44-2-1.66s1.42-1.06,2.36-.95c7.95.87,15.93.17,23.89.42a11.52,11.52,0,0,0,6.5-1.88c9.11-5.47,18.22-11,27.42-16.27,3.87-2.25,8-4.07,12.68-3.65,1.33.12,2.79.11,3.38,1.59s-.23,2.55-1.08,3.62c-2.94,3.69-7.21,5.63-11,8.22-5.66,3.9-11.52,7.53-17.32,11.23A12,12,0,0,0,190,29.4c-4.57,8.91-9.24,17.79-13.76,26.73-1.44,2.84-3.29,5-6.49,5.81-.74.18-1.49.24-1.92-.51s0-1.43.7-1.75c1.42-.64,1.72-1.93,2.06-3.22,1.33-5,2.67-10,3.94-15.05.24-1,1-2.22-.18-3s-2.13.07-3.06.56c-5.44,2.88-28.05,13.13-34.11,14.47-5,1.1-8.44,3.81-11.8,7.15C124.5,61.5,123.8,62.71,122.11,63.11Z"/></svg>